<?xml version="1.0" encoding="UTF-8"?>
<svg width="24px" height="24px" viewBox="0 0 24 24" version="1.1" xmlns="http://www.w3.org/2000/svg" xmlns:xlink="http://www.w3.org/1999/xlink">
    <!-- Generator: Sketch 45.2 (43514) - http://www.bohemiancoding.com/sketch -->
    <title>Page 1</title>
    <desc>Created with Sketch.</desc>
    <defs></defs>
    <g id="PIXEL-" stroke="none" stroke-width="1" fill="none" fill-rule="evenodd">
        <g id="Chat---pixel" transform="translate(-153.000000, -173.000000)" fill="#000000">
            <g id="USER" transform="translate(133.000000, 100.000000)">
                <g id="1" transform="translate(20.000000, 73.000000)">
                    <path d="M22.1092483,8.64745 L22.1092483,7.690425 L21.1463482,7.690425 L21.1463482,6.725575 L20.1863982,6.725575 L20.1863982,5.76855 L14.4198982,5.76855 L14.4198982,6.725575 L12.4980233,6.725575 L12.4980233,5.76855 L14.4198982,5.76855 L14.4198982,4.8037 L15.3769233,4.8037 L15.3769233,3.846675 L16.3417732,3.846675 L16.3417732,2.881825 L17.2987983,2.881825 L17.2987983,1.9248 L17.2997757,0.958 L17.2997757,1.42108547e-14 L13.4560258,1.42108547e-14 L13.4560258,0.957025 L12.4990008,0.957025 L12.4990008,1.921875 L11.5341508,1.921875 L11.5341508,3.84375 L10.5712508,3.84375 L10.5712508,2.8789 L9.61130075,2.8789 L9.61130075,1.921875 L7.68845075,1.921875 L7.68845075,2.8789 L8.64840075,2.8789 L8.64840075,3.84375 L9.61130075,3.84375 L9.61130075,4.800775 L10.5712508,4.800775 L10.5712508,6.72265 L8.64840075,6.72265 L8.64840075,5.765625 L2.87890075,5.765625 L2.87890075,6.72265 L1.92187575,6.72265 L1.92187575,7.6875 L0.957025,7.6875 L0.957025,8.644525 L0,8.644525 L0,14.418025 L0.957025,14.418025 L0.957025,17.297025 L1.92187575,17.297025 L1.92187575,19.2189 L2.87890075,19.2189 L2.87890075,20.18375 L3.84375075,20.18375 L3.84375075,21.140775 L4.80077575,21.140775 L4.80077575,22.1056253 L5.76562575,22.1056253 L5.76562575,23.0626503 L10.5713758,23.0626503 L10.5713758,22.1056253 L12.4991008,22.1056253 L12.4991008,23.0626503 L17.2998508,23.0626503 L17.2998508,22.1056253 L18.2647007,22.1056253 L18.2647007,21.140775 L19.2246507,21.140775 L19.2246507,20.18375 L20.1875507,20.18375 L20.1875507,19.2189 L21.1475007,19.2189 L21.1475007,17.297025 L22.1104008,17.297025 L22.1104008,14.418025 L23.0703507,14.418025 L23.0703507,8.644525 L22.1092483,8.64745 Z M12.4969982,2.88095 L13.4540232,2.88095 L13.4540232,1.923925 L14.4188733,1.923925 L14.4188733,0.9581 L16.3407482,0.9581 L16.3407482,1.92295 L15.3758983,1.92295 L15.3758983,2.879975 L14.4188733,2.879975 L14.4188733,3.844825 L13.4540232,3.844825 L13.4540232,4.80185 L12.4969982,4.80185 L12.4969982,2.88095 Z M22.1092482,10.57045 L22.1092482,13.4572 L21.1463482,13.4572 L21.1463482,16.34395 L20.1863982,16.34395 L20.1863982,18.265825 L19.2234982,18.265825 L19.2234982,19.22285 L18.2635482,19.22285 L18.2635482,20.1877 L17.2986982,20.1877 L17.2986982,21.144725 L16.3416732,21.144725 L16.3416732,22.1095753 L13.4549232,22.1095753 L13.4549232,21.144725 L12.4978982,21.144725 L12.4978982,20.1877 L10.5701732,20.1877 L10.5701732,21.144725 L9.61022325,21.144725 L9.61022325,22.1095753 L6.72447325,22.1095753 L6.72447325,21.144725 L5.76452325,21.144725 L5.76452325,20.1877 L4.79967325,20.1877 L4.79967325,19.22285 L3.84264825,19.22285 L3.84264825,18.265825 L2.87779825,18.265825 L2.87779825,16.34395 L1.92077325,16.34395 L1.92077325,13.4572 L0.9559235,13.4572 L0.9559235,9.61345 L1.92077325,9.61345 L1.92077325,8.6486 L2.87779825,8.6486 L2.87779825,7.691575 L3.84264825,7.691575 L3.84264825,6.726725 L7.68739825,6.726725 L7.68739825,7.691575 L9.61024825,7.691575 L9.61024825,8.6486 L13.4549982,8.6486 L13.4549982,7.691575 L15.3768732,7.691575 L15.3768732,6.726725 L19.2236232,6.726725 L19.2236232,7.691575 L20.1865232,7.691575 L20.1865232,8.6486 L21.1464732,8.6486 L21.1464732,9.61345 L22.1093732,9.61345 L22.1092482,10.57045 Z" id="Page-1"></path>
                </g>
            </g>
        </g>
    </g>
</svg>