<?xml version="1.0" encoding="UTF-8"?>
<svg width="25px" height="26px" viewBox="0 0 25 26" version="1.1" xmlns="http://www.w3.org/2000/svg" xmlns:xlink="http://www.w3.org/1999/xlink">
    <!-- Generator: Sketch 45.2 (43514) - http://www.bohemiancoding.com/sketch -->
    <title>Combined Shape</title>
    <desc>Created with Sketch.</desc>
    <defs></defs>
    <g id="PIXEL-" stroke="none" stroke-width="1" fill="none" fill-rule="evenodd">
        <g id="Chat---pixel" transform="translate(-153.000000, -343.000000)" fill="#000000">
            <g id="USER" transform="translate(133.000000, 100.000000)">
                <g id="5" transform="translate(20.000000, 242.714286)">
                    <path d="M23.675884,21.8230228 L23.675884,19.1923634 L22.3604972,19.1923634 L22.3604972,17.8770337 L21.0451105,17.8770337 L21.0451105,16.561704 L19.7297237,16.561704 L19.7297237,15.2420651 L15.7835911,15.2420651 L15.7835911,16.561704 L13.1528175,16.561704 L13.1528175,16.5670988 L9.20336999,16.5670988 L9.20336999,15.2474599 L5.25723735,15.2474599 L5.25723735,16.5670988 L3.9418506,16.5670988 L3.9418506,17.8824285 L2.62646384,17.8824285 L2.62646384,19.1977582 L1.31107736,19.1977582 L1.31107736,21.8284176 L0,21.8273375 L0,25.7755102 L13.1635358,25.7755102 L13.1635358,25.7701151 L25,25.7701151 L25,21.8219427 L23.675884,21.8230228 Z M23.675884,24.4526046 L13.1526794,24.4526046 L13.1526794,24.4579997 L1.31096631,24.4579997 L1.31096631,23.14267 L2.62635334,23.14267 L2.62635334,20.5120106 L3.9417401,20.5120106 L3.9417401,19.1966809 L5.25712685,19.1966809 L5.25712685,17.8813512 L6.57251361,17.8813512 L6.57251361,16.5660215 L7.88790036,16.5660215 L7.88790036,17.8813512 L13.1569612,17.8813512 L13.1569612,17.8759564 L17.0989502,17.8759564 L17.0989502,16.5606267 L18.4143369,16.5606267 L18.4143369,17.8759564 L19.7297237,17.8759564 L19.7297237,19.1912861 L21.0451105,19.1912861 L21.0451105,20.5066158 L22.3604972,20.5066158 L22.3604972,23.1372752 L23.675884,23.1372752 L23.675884,24.4526046 Z M18.4164916,4.71934468 L18.4164916,4.72041922 L19.7318784,4.72149929 L19.7318784,9.98287331 L18.4164916,9.98287331 L18.4164916,11.298203 L17.1011049,11.298203 L17.1011049,12.6135327 L15.7857181,12.6135327 L15.7857181,13.931017 L13.1549446,13.931017 L13.1549446,13.9364118 L9.20135342,13.9364118 L9.20135342,12.6189275 L7.88596666,12.6189275 L7.88596666,11.3035978 L6.57057991,11.3035978 L6.57057991,9.9882681 L5.25519315,9.9882681 L5.25519315,4.72689408 L6.57057991,4.72689408 L6.57057991,3.41156439 L7.88596666,3.41156439 L7.88596666,2.09623469 L9.20135342,2.09623469 L9.20135342,0.780904998 L13.1549446,0.780904998 L13.1549446,0.775510204 L15.7857181,0.775510204 L15.7857181,2.0886853 L17.1011049,2.0886853 L17.1011049,3.40401499 L18.4164916,3.40401499 L18.4164916,4.71934468 Z M18.4164916,7.35000407 L18.4175718,6.03575444 L17.102185,6.03575444 L17.102185,4.72042475 L15.7867982,4.72042475 L15.7867982,3.40509505 L14.4714115,3.40509505 L14.4714115,2.08976536 L13.1560247,2.08976536 L13.1549446,2.09408009 L10.516602,2.09408009 L10.516602,3.40940978 L9.2012153,3.40940978 L9.2012153,4.72473948 L7.88582854,4.72473948 L7.88582854,6.04006917 L6.57044179,6.04006917 L6.57044179,8.67072856 L7.88582854,8.67072856 L7.88582854,9.98605825 L9.2012153,9.98605825 L9.2012153,11.3013879 L10.516602,11.3013879 L10.516602,12.6167176 L13.1549446,12.6167176 L13.1549446,12.6113228 L14.4703314,12.6113228 L14.4703314,11.2959932 L15.7857181,11.2959932 L15.7857181,9.98066346 L17.1011049,9.98066346 L17.1011049,8.66533377 L18.4164916,8.66533377 L18.4164916,7.35000407 Z" id="Combined-Shape"></path>
                </g>
            </g>
        </g>
    </g>
</svg>