<svg xmlns="http://www.w3.org/2000/svg" viewBox="0 0 959.9 911.7"><defs><style>.cls-1{fill:#ff4f4f;opacity:0.1;}</style></defs><title>W</title><g id="Calque_2" data-name="Calque 2"><g id="lettres_fonds" data-name="lettres fonds"><path class="cls-1" d="M959.9,0,755.42,911.7H614.75L526.19,509.25c-19.54-86-37.77-218.81-43-293H478c-6.51,74.24-24.74,207.09-44.28,293.05L345.14,911.7H204.48L0,0H136.76l93.77,498.83c11.73,66.43,33.87,185,41.68,242.25h5.21c7.81-57.3,27.35-169.31,41.68-248.76l91.17-478H549.63l91.17,478c14.33,79.45,33.87,191.46,41.68,248.76h5.21c7.81-57.3,29.95-175.82,41.68-242.25L823.14,0Z"/></g></g></svg>