<svg xmlns="http://www.w3.org/2000/svg" xmlns:xlink="http://www.w3.org/1999/xlink" viewBox="0 0 903.36 541.85"><defs><style>.cls-1{fill:none;}.cls-2{clip-path:url(#clip-path);}.cls-3{opacity:0.1;}.cls-4{fill:#ff4f4f;}</style><clipPath id="clip-path" transform="translate(-46.55 -58.74)"><rect class="cls-1" width="814.67" height="602.39"/></clipPath></defs><title>WE</title><g id="Calque_2" data-name="Calque 2"><g id="Lettres_fond" data-name="Lettres fond"><g class="cls-2"><g class="cls-3"><path class="cls-4" d="M617,58.74,495.52,600.59H411.91L359.28,361.4c-11.61-51.08-22.45-130-25.55-174.16h-3.09c-3.87,44.12-14.71,123.08-26.32,174.16L251.68,600.59h-83.6L46.55,58.74h81.28l55.73,296.47c7,39.48,20.13,109.92,24.77,144h3.1c4.64-34.06,16.25-100.63,24.77-147.85L290.38,67.26h82.83l54.18,284.08c8.52,47.22,20.13,113.79,24.77,147.85h3.1c4.65-34.06,17.8-104.5,24.77-144L535.76,58.74Z" transform="translate(-46.55 -58.74)"/><path class="cls-4" d="M949.91,527.05v73.54H676.66V58.74H942.17v73.54H754.84V289.42H927.46v72H754.84V527.05Z" transform="translate(-46.55 -58.74)"/></g></g></g></g></svg>