<svg xmlns="http://www.w3.org/2000/svg" viewBox="0 0 32 32"><defs><style>.cls-1{fill:#ff4f4f;fill-rule:evenodd;}</style></defs><title>picto 2</title><g id="Calque_2" data-name="Calque 2"><g id="Objets"><path class="cls-1" d="M11.73,7.73c-.26,2.3-3.83,2.45-4.14,4.58-.36,2.47,3.68,6.08,5,7.29,1,.95,2.09,1.7,3.42,2.72.95.73,2.87,2.35,3.71,2.29,1.79-.12,2.55-4,4.43-4.15,1-.08,3.33,1.67,4.14,2.15A22.94,22.94,0,0,1,32,25a7.91,7.91,0,0,1-9.28,6.87C14.88,30.82,6.29,23.11,2.6,16.17,1.19,13.52-.22,9.76,0,6.87.24,4.34,3.33.16,6,0c1.7-.1,2.53,2.26,3.43,3.72a31.9,31.9,0,0,1,2.28,4"/></g></g></svg>