<?xml version="1.0" encoding="UTF-8"?>
<svg width="29px" height="28px" viewBox="0 0 29 28" version="1.1" xmlns="http://www.w3.org/2000/svg" xmlns:xlink="http://www.w3.org/1999/xlink">
    <!-- Generator: Sketch 45.2 (43514) - http://www.bohemiancoding.com/sketch -->
    <title>Smiley</title>
    <desc>Created with Sketch.</desc>
    <defs></defs>
    <g id="PIXEL-" stroke="none" stroke-width="1" fill="none" fill-rule="evenodd">
        <g id="Chat---pixel-hover" transform="translate(-1228.000000, -116.000000)" fill="#000000">
            <g id="Sidebar" transform="translate(1213.000000, 100.000000)">
                <g id=":)">
                    <path d="M24.6704321,34.9615782 L22.2031662,34.9615782 L22.2031662,32.482298 L24.6824464,32.482298 L24.6824464,34.9602345 L34.6892785,34.9602345 L34.6892785,32.482298 L37.1685586,32.482298 L37.1685586,34.9615782 L34.724847,34.9615782 L34.724847,37.4395146 L24.6704321,37.4395146 L24.6704321,34.9615782 Z M22.8765958,19.6352598 L19.4027423,19.6352598 L19.4027423,23.1257119 L22.8947358,23.1257119 L22.8947358,19.6431244 L36.4787675,19.6431244 L36.4787675,16.151131 L22.8765958,16.151131 L22.8765958,19.6352598 Z M23.6670062,27.7693727 L23.6670062,24.2789206 L27.1589996,24.2789206 L27.1589996,27.7693727 L23.6670062,27.7693727 Z M32.2133181,27.7693727 L32.2133181,24.2789206 L35.7053115,24.2789206 L35.7053115,27.7693727 L32.2133181,27.7693727 Z M19.4027423,40.2353295 L19.4027423,36.7448774 L22.8947358,36.7448774 L22.8947358,40.2353295 L19.4027423,40.2353295 Z M15.9201944,36.7448774 L15.9201944,23.1427057 L19.4121878,23.1427057 L19.4121878,36.7448774 L15.9201944,36.7448774 Z M36.4787675,23.1257119 L36.4787675,19.6352598 L39.9707609,19.6352598 L39.9707609,23.1257119 L36.4787675,23.1257119 Z M36.4787675,40.2353295 L36.4787675,36.7448774 L39.9707609,36.7448774 L39.9707609,40.2353295 L36.4787675,40.2353295 Z M39.9613155,36.7448774 L39.9613155,23.1427057 L43.4533089,23.1427057 L43.4533089,36.7448774 L39.9613155,36.7448774 Z M22.9010986,43.7273229 L22.9010986,40.2353295 L36.5032703,40.2353295 L36.5032703,43.7273229 L22.9010986,43.7273229 Z" id="Smiley"></path>
                </g>
            </g>
        </g>
    </g>
</svg>