<?xml version="1.0" encoding="UTF-8"?>
<svg width="23px" height="24px" viewBox="0 0 23 24" version="1.1" xmlns="http://www.w3.org/2000/svg" xmlns:xlink="http://www.w3.org/1999/xlink">
    <!-- Generator: Sketch 45.2 (43514) - http://www.bohemiancoding.com/sketch -->
    <title>Page 1</title>
    <desc>Created with Sketch.</desc>
    <defs></defs>
    <g id="PIXEL-" stroke="none" stroke-width="1" fill="none" fill-rule="evenodd">
        <g id="Chat---pixel-hover" transform="translate(-153.000000, -433.000000)" fill="#000000">
            <g id="USER" transform="translate(133.000000, 100.000000)">
                <g id="8" transform="translate(20.000000, 330.571429)">
                    <path d="M8.4375,24.4518196 L8.4375,25.8570941 L2.8125,25.8570941 L2.8125,18.8268446 L0,18.8268446 L0,13.2018446 L1.405275,13.2018446 L1.405275,17.4195946 L2.8125,17.4195946 L2.8125,16.0123696 L4.219725,16.0123696 L4.219725,24.4528696 L8.4375,24.4518196 Z M21.09475,13.2018196 L21.09475,17.4195696 L19.687525,17.4195696 L19.687525,16.0123446 L18.2803,16.0123446 L18.2803,24.4528446 L14.06255,24.4518671 L14.06255,25.8571429 L19.68755,25.8571429 L19.68755,18.8268921 L22.50005,18.8268921 L22.50005,13.2018921 L21.09475,13.2018196 Z M19.687525,13.2018196 L21.09475,13.2018196 L21.09475,6.16956961 L19.687525,6.16956961 L19.687525,13.2018196 Z M19.687525,13.2018196 L18.2803,13.2018196 L18.2803,14.6070946 L19.687525,14.6070946 L19.687525,13.2018196 Z M15.469775,14.6070946 L15.469775,13.2018196 L14.06255,13.2018196 L14.06255,14.6070946 L12.655325,14.6070946 L12.655325,13.2018196 L11.25005,13.2018196 L11.25005,14.6070946 L9.844775,14.6070946 L9.844775,13.2018196 L8.43755,13.2018196 L8.43755,14.6070946 L4.2198,14.6070946 L4.2198,16.0123696 L18.2793,16.0123696 L18.2802775,14.6070946 L15.469775,14.6070946 Z M14.06255,23.0445946 L15.469775,23.0445946 L15.469775,18.8268446 L14.06255,18.8268446 L14.06255,23.0445946 Z M15.469775,8.98209461 L14.06255,8.98209461 L14.06255,11.7945946 L15.469775,11.7945946 L15.469775,8.98209461 Z M8.437525,23.0445946 L8.437525,24.4518196 L14.062525,24.4518196 L14.062525,23.0445946 L8.437525,23.0445946 Z M14.062525,18.8268446 L14.062525,17.4196196 L8.437525,17.4196196 L8.437525,18.8268446 L14.062525,18.8268446 Z M8.437525,18.8268446 L7.0303,18.8268446 L7.0303,23.0445946 L8.437525,23.0445946 L8.437525,18.8268446 Z M8.437525,8.98209461 L7.0303,8.98209461 L7.0303,11.7945946 L8.437525,11.7945946 L8.437525,8.98209461 Z M19.687525,6.16959461 L19.687525,4.76236961 L16.875025,4.76236961 L16.875025,3.35709461 L15.46975,3.35709461 L15.46975,4.76236961 L7.03025,4.76236961 L7.03025,3.35709461 L5.624975,3.35709461 L5.624975,4.76236961 L2.812475,4.76236961 L2.812475,6.16959461 L19.687525,6.16959461 Z M2.812525,13.2018446 L2.812525,14.6071196 L4.21975,14.6071196 L4.21975,13.2018446 L2.812525,13.2018446 Z M2.812525,6.16959461 L1.4053,6.16959461 L1.4053,13.2018446 L2.812525,13.2018446 L2.812525,6.16959461 Z" id="Page-1"></path>
                </g>
            </g>
        </g>
    </g>
</svg>