<?xml version="1.0" encoding="UTF-8"?>
<svg width="25px" height="26px" viewBox="0 0 25 26" version="1.1" xmlns="http://www.w3.org/2000/svg" xmlns:xlink="http://www.w3.org/1999/xlink">
    <!-- Generator: Sketch 45.2 (43514) - http://www.bohemiancoding.com/sketch -->
    <title>Combined Shape</title>
    <desc>Created with Sketch.</desc>
    <defs></defs>
    <g id="PIXEL-" stroke="none" stroke-width="1" fill="none" fill-rule="evenodd">
        <g id="Chat---pixel-hover" transform="translate(-153.000000, -387.000000)" fill="#000000">
            <g id="USER" transform="translate(133.000000, 100.000000)">
                <g id="6" transform="translate(20.000000, 287.142857)">
                    <path d="M6.24845609,2.77887315 L6.24845609,5.55622963 L9.37341546,5.55622963 L9.37341546,2.77876482 L6.24878112,2.77876482 L6.24878112,0 L3.12382175,0 L3.12382175,2.77887315 L6.24845609,2.77887315 Z M3.12495937,22.2225352 L9.37341546,22.2225352 L15.6250406,22.2225352 L15.6250406,25 L3.12341546,25 L3.12341546,22.2239074 L0,22.2239074 L0,8.3351389 L3.12495937,8.3351389 L3.12495937,5.55767409 L6.24991874,5.55767409 L6.24991874,8.3351389 L9.37487811,8.3351389 L9.37487811,5.55767409 L12.4998375,5.55767409 L12.4998375,8.3351389 L18.7498375,8.3351389 L18.7498375,11.1126037 L21.8747969,11.1126037 L21.8747969,13.8900685 L18.7498375,13.8900685 L18.7498375,16.6675333 L18.7516252,19.4464426 L21.8765845,19.4464426 L21.8765845,22.2239074 L15.6265845,22.2239074 L15.6265845,11.1124593 L3.12495937,11.1124593 L3.12495937,22.2225352 Z M21.8750406,19.4452148 L21.8750406,13.890213 L25,13.890213 L25,19.4452148 L21.8750406,19.4452148 Z M12.5000813,5.5564463 L12.5000813,2.77898149 L15.6250406,2.77898149 L15.6250406,5.5564463 L12.5000813,5.5564463 Z M9.37369986,2.77887315 L9.37369986,0 L12.5002438,0 L12.5002438,2.77887315 L9.37369986,2.77887315 Z" id="Combined-Shape"></path>
                </g>
            </g>
        </g>
    </g>
</svg>