<?xml version="1.0" encoding="utf-8"?>
<!-- Generator: Adobe Illustrator 21.1.0, SVG Export Plug-In . SVG Version: 6.00 Build 0)  -->
<svg version="1.1" id="Calque_1" xmlns="http://www.w3.org/2000/svg" xmlns:xlink="http://www.w3.org/1999/xlink" x="0px" y="0px"
	 viewBox="0 0 23 24" style="enable-background:new 0 0 23 24;" xml:space="preserve">
<path d="M7.2,2.6V1.2h8.7v1.4L7.2,2.6L7.2,2.6z M7.2,2.6H5.7V4h1.4V2.6z M17.3,4V2.6h-1.4V4H17.3z M5.7,12.7h2.9v-1.4h1.4V9.8H5.7
	V12.7z M12.9,9.8v1.4h1.4v1.4h2.9V9.8H12.9z M15.8,15.6h-1.4v-1.4h-1.4v-1.4h-2.9v1.4H8.6v1.4H7.2v1.4h8.7L15.8,15.6L15.8,15.6z
	 M5.7,15.6v-1.4H4.3V9.8H2.8v5.8H5.7z M5.7,8.4h11.6v1.4h1.4V4h-1.4v2.9H5.7V4H4.3v4.3v1.4h1.4V8.4z M15.8,20h1.4v-1.4h-1.4V20z
	 M5.7,20h1.4v-1.4H5.7C5.7,18.5,5.7,20,5.7,20z M18.7,14.2h-1.4v1.4h2.9V9.8h-1.4L18.7,14.2L18.7,14.2z M20.2,15.6V20h1.4v-4.3H20.2
	z M18.7,21.4h1.4V20h-1.4V21.4z M14.4,21.4V20h-1.4v-1.4h-2.9V20H8.6v1.4H4.3v1.4h5.8v-1.4h2.9v1.4h5.8v-1.4H14.4z M2.8,20v1.4h1.4
	V20H2.8z M2.8,15.6H1.4V20h1.4V15.6z"/>
</svg>
