<?xml version="1.0" encoding="utf-8"?>
<!-- Generator: Adobe Illustrator 21.1.0, SVG Export Plug-In . SVG Version: 6.00 Build 0)  -->
<svg version="1.1" id="Calque_1" xmlns="http://www.w3.org/2000/svg" xmlns:xlink="http://www.w3.org/1999/xlink" x="0px" y="0px"
	 viewBox="0 0 23 24" style="enable-background:new 0 0 23 24;" xml:space="preserve">
<path d="M22.7,7.5v3h-1.5V9h-6V7.5H22.7z M18.3,22.5V24h4.5v-3h-1.5v1.5H18.3z M19.7,21h1.5v-3h-1.5V21z M19.7,12h1.5v-1.5h-1.5V12z
	 M18.3,18h1.5v-3h-1.5V18z M18.3,13.5h1.5V12h-1.5V13.5z M15.3,21v1.5h3V21H15.3z M16.8,15h1.5v-1.5h-1.5V15z M12.2,19.5V21h3v-1.5
	H12.2z M13.8,7.5h1.5v-3h-1.5C13.8,4.5,13.8,7.5,13.8,7.5z M12.2,13.5h1.5V9h-1.5V13.5z M12.2,4.5h1.5v-3h-1.5V4.5z M10.7,18v1.5
	h1.5V18H10.7z M12.2,0h-1.5v1.5h1.5V0z M9.2,13.5h1.5V9H9.2V13.5z M10.7,1.5H9.2v3h1.5V1.5z M7.7,19.5V21h3v-1.5H7.7z M9.2,4.5H7.7
	v3h1.5V4.5z M4.7,21v1.5h3V21H4.7z M6.2,13.5H4.7V15h1.5V13.5z M4.7,15H3.3v3h1.5V15z M3.3,12v1.5h1.5V12H3.3z M1.7,22.5V21H0.3v3
	h4.5v-1.5H1.7z M3.3,18H1.7v3h1.5V18z M1.7,10.5V12h1.5v-1.5H1.7z M7.7,9V7.5H0.3v3h1.5V9H7.7z"/>
</svg>
