<?xml version="1.0" encoding="UTF-8"?>
<svg width="23px" height="23px" viewBox="0 0 23 23" version="1.1" xmlns="http://www.w3.org/2000/svg" xmlns:xlink="http://www.w3.org/1999/xlink">
    <!-- Generator: Sketch 45.2 (43514) - http://www.bohemiancoding.com/sketch -->
    <title>Page 1</title>
    <desc>Created with Sketch.</desc>
    <defs></defs>
    <g id="PIXEL-" stroke="none" stroke-width="1" fill="none" fill-rule="evenodd">
        <g id="Chat---pixel" transform="translate(-153.000000, -301.000000)" fill="#000000">
            <g id="USER" transform="translate(133.000000, 100.000000)">
                <g id="4" transform="translate(20.000000, 198.285714)">
                    <path d="M20.658449,9.93318165 L20.658449,8.55623165 L19.281499,8.55623165 L19.281499,5.80223165 L17.904549,5.80223165 L17.904549,4.42528165 L15.149549,4.42528165 L15.149549,3.04735665 L6.886799,3.04735665 L6.886799,4.42430665 L4.132799,4.42430665 L4.132799,5.80125665 L2.755849,5.80125665 L2.755849,8.55525665 L1.378899,8.55525665 L1.378899,9.93220665 L0,9.93318415 L0,19.5729317 L2.753999,19.5729317 L2.753999,23.7046817 L4.130949,23.7046817 L4.130949,25.0816327 L17.901449,25.0816327 L17.901449,23.7046817 L19.278399,23.7046817 L19.278399,19.5729317 L22.032399,19.5729317 L22.032399,15.4421817 L22.0363065,14.0652317 L22.0363065,9.93448165 L20.658449,9.93318165 Z M17.904449,20.9516817 L17.904449,22.3286317 L16.527499,22.3286317 L16.527499,23.7055817 L5.509999,23.7055817 L5.509999,22.3286317 L4.133049,22.3286317 L4.133049,19.5736317 L5.509999,19.5736317 L5.509999,18.1966817 L8.263999,18.1966817 L8.263999,20.9516817 L9.640949,20.9516817 L9.640949,18.1966817 L12.394949,18.1966817 L12.394949,20.9516817 L13.771899,20.9516817 L13.771899,18.1966817 L16.526899,18.1966817 L16.526899,19.5736317 L17.903849,19.5736317 L17.904449,20.9516817 Z M20.658449,16.8199317 L20.658449,18.1968817 L17.904449,18.1968817 L17.904449,16.8199317 L13.772699,16.8199317 L13.772699,15.4429817 L15.149649,15.4429817 L15.149649,11.3112317 L13.772699,11.3112317 L13.772699,9.93428165 L12.394774,9.93330415 L8.264024,9.93330415 L8.264024,11.3102542 L6.887074,11.3102542 L6.887074,12.6872042 L6.886099,14.0651292 L6.886099,15.4420792 L8.263049,15.4420792 L8.263049,16.8190292 L4.132299,16.8190292 L4.132299,18.1959792 L1.378299,18.1959792 L1.378299,15.4419792 L4.132299,15.4419792 L4.132299,14.0650292 L5.509249,14.0650292 L5.509249,9.93427915 L4.132299,9.93427915 L4.132299,7.18027915 L5.509249,7.18027915 L5.509249,8.55722915 L8.263249,8.55722915 L8.263249,7.18027915 L9.640199,7.18027915 L9.640199,4.42627915 L12.394199,4.42627915 L12.394199,7.18027915 L13.771149,7.18027915 L13.771149,8.55722915 L16.526149,8.55722915 L16.526149,7.18027915 L17.903099,7.18027915 L17.903099,9.93427915 L16.526149,9.93427915 L16.526149,12.6882792 L16.5281015,14.0652292 L17.9050515,14.0652292 L17.9050515,15.4421792 L20.6590515,15.4421792 L20.660029,16.8201042 L20.658449,16.8199317 Z" id="Page-1"></path>
                </g>
            </g>
        </g>
    </g>
</svg>