<?xml version="1.0" encoding="UTF-8"?>
<svg width="25px" height="25px" viewBox="0 0 25 25" version="1.1" xmlns="http://www.w3.org/2000/svg" xmlns:xlink="http://www.w3.org/1999/xlink">
    <!-- Generator: Sketch 45.2 (43514) - http://www.bohemiancoding.com/sketch -->
    <title>Page 1</title>
    <desc>Created with Sketch.</desc>
    <defs></defs>
    <g id="PIXEL-" stroke="none" stroke-width="1" fill="none" fill-rule="evenodd">
        <g id="Chat---pixel" transform="translate(-153.000000, -475.000000)" fill="#000000">
            <g id="USER" transform="translate(133.000000, 100.000000)">
                <g id="7" transform="translate(20.000000, 375.000000)">
                    <path d="M18.5438503,12.6375745 L16.4833003,12.6375745 L16.4833003,10.5770245 L18.5438503,10.5770245 L18.5438503,12.6375745 Z M14.4228503,8.51657447 L12.3623003,8.51657447 L12.3623003,6.45602447 L14.4228503,6.45602447 L14.4228503,8.51657447 Z M16.4834003,14.6973245 L14.4228503,14.6973245 L14.4228503,12.6377495 L16.4834003,12.6377495 L16.4834003,14.6973245 Z M12.3624003,10.5773245 L10.3018503,10.5773245 L10.3018503,8.51677448 L12.3624003,8.51677448 L12.3624003,10.5773245 Z M10.3018503,12.6378745 L8.24130025,12.6378745 L8.24130025,10.5773245 L10.3018503,10.5773245 L10.3018503,12.6378745 Z M8.24130025,14.6974495 L6.18075025,14.6974495 L6.18075025,12.6378745 L8.24130025,12.6378745 L8.24130025,14.6974495 Z M8.24130025,16.7579995 L6.18075025,16.7579995 L6.18075025,14.6974495 L8.24130025,14.6974495 L8.24130025,16.7579995 Z M14.4230503,16.7579995 L12.3625003,16.7579995 L12.3625003,14.6974495 L14.4230503,14.6974495 L14.4230503,16.7579995 Z M12.3625003,18.8185495 L10.3019503,18.8185495 L10.3019503,16.7579995 L12.3625003,16.7579995 L12.3625003,18.8185495 Z M10.3019502,18.8185495 L8.24140025,18.8185495 L8.24140025,16.7579995 L10.3019502,16.7579995 L10.3019502,18.8185495 Z M8.24140025,20.8790995 L6.18085025,20.8790995 L6.18085025,18.8185495 L8.24140025,18.8185495 L8.24140025,20.8790995 Z M6.18085025,18.8185495 L4.12127525,18.8185495 L4.12127525,16.7579995 L6.18085025,16.7579995 L6.18085025,18.8185495 Z M4.12127525,20.8790995 L2.060725,20.8790995 L2.060725,18.8185495 L4.12127525,18.8185495 L4.12127525,20.8790995 Z M6.18085025,22.93965 L4.12127525,22.93965 L4.12127525,20.8790995 L6.18085025,20.8790995 L6.18085025,22.93965 Z M10.3018503,22.93965 L8.24130025,22.93965 L8.24130025,20.8790995 L10.3018503,20.8790995 L10.3018503,22.93965 Z M4.12110025,16.7578995 L2.06055,16.7578995 L2.06055,14.6973495 L4.12110025,14.6973495 L4.12110025,16.7578995 Z M6.18067525,20.8788995 L4.12110025,20.8788995 L4.12110025,18.8183495 L6.18067525,18.8183495 L6.18067525,20.8788995 Z M4.12110025,22.93945 L2.06055,22.93945 L2.06055,20.8788995 L4.12110025,20.8788995 L4.12110025,22.93945 Z M4.12110025,25 L2.06055,25 L2.06055,22.93945 L4.12110025,22.93945 L4.12110025,25 Z M2.06055,22.93945 L0,22.93945 L0,20.8788995 L2.06055,20.8788995 L2.06055,22.93945 Z M2.06055,25 L0,25 L0,22.93945 L2.06055,22.93945 L2.06055,25 Z M10.3018003,20.8789995 L8.24125025,20.8789995 L8.24125025,18.8184495 L10.3018003,18.8184495 L10.3018003,20.8789995 Z M6.18080025,16.7579995 L4.12122525,16.7579995 L4.12122525,14.6974495 L6.18080025,14.6974495 L6.18080025,16.7579995 Z M8.24135025,18.8185495 L6.18080025,18.8185495 L6.18080025,16.7579995 L8.24135025,16.7579995 L8.24135025,18.8185495 Z M16.4836003,6.45629947 L14.4230502,6.45629947 L14.4230502,4.39574947 L16.4836003,4.39574947 L16.4836003,6.45629947 Z M18.5441503,4.39574947 L16.4836003,4.39574947 L16.4836003,2.33519947 L18.5441503,2.33519947 L18.5441503,4.39574947 Z M20.6047003,2.33519947 L18.5441503,2.33519947 L18.5441503,0.274649475 L20.6047003,0.274649475 L20.6047003,2.33519947 Z M22.6652503,2.33519947 L20.6047003,2.33519947 L20.6047003,0.274649475 L22.6652503,0.274649475 L22.6652503,2.33519947 Z M24.7258003,2.33519947 L22.6652502,2.33519947 L22.6652502,0.274649475 L24.7258003,0.274649475 L24.7258003,2.33519947 Z M22.6652503,8.51694948 L20.6047003,8.51694948 L20.6047003,6.45639947 L22.6652503,6.45639947 L22.6652503,8.51694948 Z M20.6047003,10.5774995 L18.5441503,10.5774995 L18.5441503,8.51694947 L20.6047003,8.51694947 L20.6047003,10.5774995 Z M14.4229503,22.9397502 L12.3624003,22.9397502 L12.3624003,20.8791995 L14.4229503,20.8791995 L14.4229503,22.9397502 Z M6.18070025,14.6974995 L4.12112525,14.6974995 L4.12112525,12.6379245 L6.18070025,12.6379245 L6.18070025,14.6974995 Z M12.3624503,20.8792495 L10.3019002,20.8792495 L10.3019002,18.8186995 L12.3624503,18.8186995 L12.3624503,20.8792495 Z M4.12120025,14.6974995 L2.06065,14.6974995 L2.06065,12.6379245 L4.12120025,12.6379245 L4.12120025,14.6974995 Z M12.3624503,22.9397502 L10.3019002,22.9397502 L10.3019002,20.8791995 L12.3624503,20.8791995 L12.3624503,22.9397502 Z M24.7257003,6.45624947 L22.6651503,6.45624947 L22.6651503,4.39569947 L24.7257003,4.39569947 L24.7257003,6.45624947 Z M24.7257003,4.39569947 L22.6651503,4.39569947 L22.6651503,2.33515197 L24.7257003,2.33515197 L24.7257003,4.39569947 Z M14.4229503,20.8791995 L12.3624003,20.8791995 L12.3624003,18.8186495 L14.4229503,18.8186495 L14.4229503,20.8791995 Z M6.18070025,12.6379495 L4.12112525,12.6379495 L4.12112525,10.5773995 L6.18070025,10.5773995 L6.18070025,12.6379495 Z M4.12112525,12.6379495 L2.06057475,12.6379495 L2.06057475,10.5773995 L4.12112525,10.5773995 L4.12112525,12.6379495 Z" id="Page-1"></path>
                </g>
            </g>
        </g>
    </g>
</svg>