<?xml version="1.0" encoding="UTF-8"?>
<svg width="21px" height="21px" viewBox="0 0 21 21" version="1.1" xmlns="http://www.w3.org/2000/svg" xmlns:xlink="http://www.w3.org/1999/xlink">
    <!-- Generator: Sketch 45.2 (43514) - http://www.bohemiancoding.com/sketch -->
    <title>Page 1</title>
    <desc>Created with Sketch.</desc>
    <defs></defs>
    <g id="PIXEL-" stroke="none" stroke-width="1" fill="none" fill-rule="evenodd">
        <g id="Chat---pixel" transform="translate(-153.000000, -259.000000)" fill="#000000">
            <g id="USER" transform="translate(133.000000, 100.000000)">
                <g id="3" transform="translate(20.000000, 158.857143)">
                    <path d="M19.1893748,10.7644008 L19.1893748,12.0446758 L20.4696498,12.0446758 L20.4696498,13.3249508 L19.1893748,13.3249508 L19.1893748,14.6052258 L17.9120248,14.6052258 L17.9120248,13.3249508 L16.6317498,13.3249508 L16.6317498,12.0446758 L17.9120248,12.0446758 L17.9120248,10.7644008 L16.6317498,10.7644008 L16.6317498,9.48607575 L17.9120248,9.48607575 L17.9120248,1.81032575 L19.1893748,1.81032575 L19.1893748,9.48607575 L20.4696498,9.48607575 L20.4696498,10.7634258 L19.1893748,10.7644008 Z M17.9120248,1.81040075 L17.9120248,0.53012575 L15.3515248,0.53012575 L15.3515248,1.81040075 L17.9120248,1.81040075 Z M17.9120248,14.6044007 L17.9120248,15.8817507 L16.6317498,15.8817507 L16.6317498,21 L11.5134998,21 L11.5134998,19.7197257 L8.95599975,19.7197257 L8.95599975,21 L3.83774975,21 L3.83774975,15.8817507 L2.55747475,15.8817507 L2.55747475,14.6044007 L17.9120248,14.6044007 Z M15.3515248,15.8817508 L5.11802475,15.8817508 L5.11802475,19.7197508 L7.67552475,19.7197508 L7.67552475,18.4424008 L12.7937748,18.4424008 L12.7937748,19.7197508 L15.3512748,19.7197508 L15.3515248,15.8817508 Z M15.3515248,1.81050075 L14.0741748,1.81050075 L14.0741748,3.08785075 L15.3515248,3.08785075 L15.3515248,1.81050075 Z M12.7940248,10.7645008 L14.0742998,10.7645008 L14.0742998,8.20700075 L12.7940248,8.20700075 L12.7940248,10.7645008 Z M14.0742998,3.08875075 L12.7940248,3.08875075 L12.7940248,4.36902575 L14.0742998,4.36902575 L14.0742998,3.08875075 Z M12.7940248,4.36805075 L11.5137498,4.36805075 L11.5137498,5.64832575 L12.7940248,5.64832575 L12.7940248,4.36805075 Z M8.95602475,12.0438008 L8.95602475,13.3240758 L11.5135248,13.3240758 L11.5135248,12.0438008 L8.95602475,12.0438008 Z M11.5135248,6.92655075 L11.5135248,5.64920075 L8.95602475,5.64920075 L8.95602475,6.92655075 L11.5135248,6.92655075 Z M8.95602475,5.64822575 L8.95602475,4.36795075 L7.67574975,4.36795075 L7.67574975,5.64822575 L8.95602475,5.64822575 Z M6.39552475,10.7644757 L7.67579975,10.7644757 L7.67579975,8.20697575 L6.39552475,8.20697575 L6.39552475,10.7644757 Z M7.67579975,4.36797575 L7.67579975,3.08770075 L6.39552475,3.08770075 L6.39552475,4.36797575 L7.67579975,4.36797575 Z M6.39552475,3.08867575 L6.39552475,1.81132575 L5.11817475,1.81132575 L5.11817475,3.08867575 L6.39552475,3.08867575 Z M5.11817475,1.81035075 L5.11817475,0.53007575 L2.55767475,0.53007575 L2.55767475,1.81035075 L5.11817475,1.81035075 Z M3.83789975,13.3241008 L3.83789975,12.0438258 L2.55762475,12.0438258 L2.55762475,10.7635508 L3.83789975,10.7635508 L3.83789975,9.48620075 L2.55762475,9.48620075 L2.55762475,1.81045075 L1.28027475,1.81045075 L1.28027475,9.48620075 L0,9.48620075 L0,10.7635508 L1.28027475,10.7635508 L1.28027475,12.0438258 L0,12.0438258 L0,13.3241008 L1.28027475,13.3241008 L1.28027475,14.6043758 L2.55762475,14.6043758 L2.55762475,13.3241008 L3.83789975,13.3241008 Z" id="Page-1"></path>
                </g>
            </g>
        </g>
    </g>
</svg>