<?xml version="1.0" encoding="utf-8"?>
<!-- Generator: Adobe Illustrator 21.1.0, SVG Export Plug-In . SVG Version: 6.00 Build 0)  -->
<svg version="1.1" id="Calque_1" xmlns="http://www.w3.org/2000/svg" xmlns:xlink="http://www.w3.org/1999/xlink" x="0px" y="0px"
	 viewBox="0 0 23 24" style="enable-background:new 0 0 23 24;" xml:space="preserve">
<g>
	<rect x="5" y="5.5" width="1.6" height="1.6"/>
	<polygon points="13.1,5.5 11.5,5.5 9.9,5.5 9.9,7.1 11.5,7.1 13.1,7.1 	"/>
	<rect x="13.1" y="7.1" width="1.6" height="1.6"/>
	<polygon points="3.4,7.1 3.4,8.7 3.4,10.4 5,10.4 5,8.7 5,7.1 	"/>
	<rect x="1.7" y="10.4" width="1.6" height="1.6"/>
	<polygon points="6.6,10.4 5,10.4 5,12 6.6,12 6.6,12 8.2,12 8.2,10.4 	"/>
	<rect x="18" y="12" width="1.6" height="1.6"/>
	<rect x="8.2" y="12" width="1.6" height="1.6"/>
	<rect x="16.4" y="13.6" width="1.6" height="1.6"/>
	<rect x="14.8" y="15.3" width="1.6" height="1.6"/>
	<rect x="13.1" y="16.9" width="1.6" height="1.6"/>
	<g>
		<polygon points="0.1,16.9 0.1,18.5 0.1,20.1 1.7,20.1 1.7,18.5 1.7,16.9 1.7,13.6 1.7,12 0.1,12 0.1,13.6 		"/>
	</g>
	<rect x="11.5" y="18.5" width="1.6" height="1.6"/>
	<rect x="1.7" y="20.1" width="1.6" height="1.6"/>
	<rect x="9.9" y="20.1" width="1.6" height="1.6"/>
	<polygon points="6.6,21.8 5,21.8 3.4,21.8 3.4,23.4 5,23.4 6.6,23.4 6.6,23.4 8.2,23.4 8.2,23.4 9.9,23.4 9.9,21.8 8.2,21.8 	"/>
	<polygon points="18,0.6 16.4,0.6 14.8,0.6 13.1,0.6 11.5,0.6 11.5,2.2 13.1,2.2 14.8,2.2 16.4,2.2 18,2.2 19.6,2.2 19.6,0.6 	"/>
	<rect x="9.9" y="2.2" width="1.6" height="1.6"/>
	<rect x="19.6" y="10.4" width="1.6" height="1.6"/>
	<rect x="19.6" y="2.2" width="1.6" height="1.6"/>
	<polygon points="21.3,3.9 21.3,5.5 21.3,7.1 21.3,8.7 21.3,10.4 22.9,10.4 22.9,8.7 22.9,7.1 22.9,5.5 22.9,3.9 	"/>
	<polygon points="8.2,5.5 9.9,5.5 9.9,3.9 8.2,3.9 6.6,3.9 6.6,5.5 	"/>
</g>
</svg>
