<?xml version="1.0" encoding="utf-8"?>
<!-- Generator: Adobe Illustrator 21.1.0, SVG Export Plug-In . SVG Version: 6.00 Build 0)  -->
<svg version="1.1" id="Calque_1" xmlns="http://www.w3.org/2000/svg" xmlns:xlink="http://www.w3.org/1999/xlink" x="0px" y="0px"
	 viewBox="0 0 23 24" style="enable-background:new 0 0 23 24;" xml:space="preserve">
<style type="text/css">
	.st0{display:none;}
	.st1{display:inline;fill:#1D1D1B;}
</style>
<title>Page 1</title>
<desc>Created with Sketch.</desc>
<g class="st0">
	<polygon class="st1" points="5.4,16 4.4,16 4.4,17.1 4.4,18.1 5.4,18.1 5.4,17.1 	"/>
	<polygon class="st1" points="6.4,20.1 6.4,21.1 7.4,21.1 7.4,20.1 7.4,19.1 6.4,19.1 	"/>
	<rect x="5.4" y="18.1" class="st1" width="1" height="1"/>
	<polygon class="st1" points="3.4,13 3.4,14 3.4,15 3.4,16 4.4,16 4.4,15 4.4,14 4.4,13 4.4,12 3.4,12 	"/>
	<rect x="7.5" y="15" class="st1" width="1" height="1"/>
	<polygon class="st1" points="8.5,17.1 9.5,17.1 10.5,17.1 10.5,16.1 9.5,16.1 8.5,16.1 	"/>
	<polygon class="st1" points="7.4,7.9 7.4,6.9 7.4,5.9 7.4,4.9 7.4,3.9 7.4,1.8 6.4,1.8 6.4,3.9 6.4,4.9 6.4,5.9 6.4,6.9 6.4,7.9 
		6.4,10 6.4,11 5.4,11 4.4,11 4.4,12 5.4,12 6.4,12 7.4,12 7.4,11 7.4,10 	"/>
	<polygon class="st1" points="9.5,3.9 9.5,4.9 9.5,5.9 9.5,6.9 9.5,7.9 9.5,8.9 10.5,8.9 11.5,8.9 12.5,8.9 12.5,7.9 11.5,7.9 
		10.5,7.9 10.5,6.9 10.5,5.9 10.5,4.9 10.5,3.9 10.5,1.8 9.5,1.8 	"/>
	<polygon class="st1" points="9.5,1.8 9.5,0.8 8.5,0.8 7.4,0.8 7.4,1.8 8.5,1.8 	"/>
	<polygon class="st1" points="16.6,13 16.6,12 16.6,11 16.6,10 16.6,8.9 15.6,8.9 15.6,10 15.6,11 15.6,12 15.6,13 15.6,14 16.6,14 
			"/>
	<polygon class="st1" points="17.6,19.1 17.6,20.1 17.6,21.1 18.6,21.1 18.6,20.1 18.6,19.1 18.6,18.1 17.6,18.1 	"/>
	<polygon class="st1" points="17.6,0.8 16.6,0.8 16.6,1.8 17.6,1.8 18.6,1.8 18.6,0.8 	"/>
	<polygon class="st1" points="18.6,17.1 18.6,18.1 19.6,18.1 19.6,17.1 19.6,15 19.6,14 19.6,13 19.6,12 19.6,11 19.6,10 19.6,7.9 
		19.6,6.9 19.6,5.9 19.6,4.9 19.6,3.9 19.6,1.8 18.6,1.8 18.6,3.9 18.6,4.9 18.6,5.9 18.6,6.9 18.6,7.9 18.6,10 18.6,11 18.6,12 
		18.6,13 18.6,14 18.6,15 	"/>
	<polygon class="st1" points="10.5,12 10.5,11 10.5,10 10.5,8.9 9.5,8.9 9.5,10 9.5,11 9.5,12 8.5,12 7.5,12 7.5,13 8.5,13 9.5,13 
		9.5,14 10.5,14 10.5,13 	"/>
	<polygon class="st1" points="14.6,14 13.5,14 13.5,15 14.6,15 15.6,15 15.6,14 	"/>
	<polygon class="st1" points="10.5,14 10.5,15 10.5,16 11.5,16 11.5,15 12.5,15 12.5,14 11.5,14 	"/>
	<polygon class="st1" points="13.5,12 13.5,11 13.5,10 13.5,8.9 12.5,8.9 12.5,10 12.5,11 12.5,12 12.5,13 12.5,14 13.5,14 13.5,13 
			"/>
	<polygon class="st1" points="7.4,23.2 8.5,23.2 9.5,23.2 10.5,23.2 11.5,23.2 12.5,23.2 13.5,23.2 14.1,23.2 14.5,23.2 15.1,23.2 
		16.1,23.2 17.6,23.2 17.6,22.2 17.6,22.2 17.6,21.1 16.6,21.1 16.6,22.2 16.1,22.2 15.1,22.2 14.5,22.2 14.1,22.2 13.5,22.2 
		12.5,22.2 11.5,22.2 10.5,22.2 9.5,22.2 8.4,22.2 8.4,21.1 7.4,21.1 	"/>
	<polygon class="st1" points="15.6,8.9 16.6,8.9 16.6,7.9 16.6,6.9 16.6,5.9 16.6,4.9 16.6,3.9 16.6,1.8 15.6,1.8 15.6,3.9 
		15.6,4.9 15.6,5.9 15.6,6.9 15.6,7.9 13.5,7.9 13.5,8.9 	"/>
</g>
<g>
	<rect x="11" y="0.4" width="1.9" height="1"/>
	<polygon points="6.2,12 6.2,13 7.2,13 7.2,13.9 8.1,13.9 8.1,13 8.1,12 8.1,9.1 7.2,9.1 7.2,12 	"/>
	<rect x="4.3" y="11" width="1.9" height="1"/>
	<rect x="3.3" y="12" width="1" height="1.9"/>
	<rect x="4.3" y="13.9" width="1" height="1"/>
	<rect x="5.2" y="14.9" width="1" height="1.9"/>
	<rect x="6.2" y="16.8" width="1" height="1.9"/>
	<rect x="7.2" y="18.7" width="1" height="1.9"/>
	<rect x="8.1" y="20.7" width="1" height="1.9"/>
	<rect x="9.1" y="22.6" width="7.7" height="1"/>
	<rect x="16.8" y="20.7" width="1" height="1.9"/>
	<rect x="17.8" y="17.8" width="1" height="2.9"/>
	<rect x="18.7" y="11" width="1" height="6.7"/>
	<rect x="17.8" y="10.1" width="1" height="1"/>
	<polygon points="17.8,10.1 17.8,9.1 16.8,9.1 15.8,9.1 15.8,10.1 15.8,13 16.8,13 16.8,10.1 	"/>
	<polygon points="12.9,9.1 12.9,12 12.9,12 13.9,12 13.9,12 13.9,9.1 15.8,9.1 15.8,8.1 13.9,8.1 13.9,1.4 12.9,1.4 12.9,8.2 	"/>
	<polygon points="10.1,11 11,11 11,1.4 10.1,1.4 10.1,8.1 8.1,8.1 8.1,9.1 10.1,9.1 	"/>
</g>
</svg>
