<?xml version="1.0" encoding="UTF-8"?>
<svg width="38px" height="39px" viewBox="0 0 38 39" version="1.1" xmlns="http://www.w3.org/2000/svg" xmlns:xlink="http://www.w3.org/1999/xlink">
    <!-- Generator: Sketch 45.2 (43514) - http://www.bohemiancoding.com/sketch -->
    <title>Wizz</title>
    <desc>Created with Sketch.</desc>
    <defs></defs>
    <g id="PIXEL-" stroke="none" stroke-width="1" fill="none" fill-rule="evenodd">
        <g id="Chat---pixel-hover" transform="translate(-1224.000000, -226.000000)" fill="#000000">
            <g id="Sidebar" transform="translate(1213.000000, 100.000000)">
                <g id="WIZZ" transform="translate(0.000000, 116.000000)">
                    <path d="M45,16.4904521 L42,16.4904521 L42,13.4919934 L37.6086025,13.4919934 L37.6086025,10 L42.6021717,10 L42.6021717,13 L45.4919934,13 L45.4919934,16 L48.4919934,16 L48.4919934,21.3932429 L45,21.3932429 L45,16.4904521 Z M40,21.4904521 L37,21.4904521 L37,18.4919934 L29.8527431,18.4919934 L29.8527431,15 L37.6021717,15 L37.6021717,18 L40.4919934,18 L40.4919934,21 L43.4919934,21 L43.4919934,28.4244929 L40,28.4244929 L40,21.4904521 Z M35.4919934,28 L38.4919934,28 L38.4919934,41.6021717 L35,41.6021717 L35,28.4904521 L32,28.4904521 L32,25 L35.4919934,25 L35.4919934,28 Z M18.8132063,32.8237484 L18.8132063,29.3332963 L22.3051997,29.3332963 L22.3051997,32.8237484 L18.8132063,32.8237484 Z M27.3595182,32.8237484 L27.3595182,29.3332963 L30.8515116,29.3332963 L30.8515116,32.8237484 L27.3595182,32.8237484 Z M14.5489425,28.1800876 L14.5489425,24.6896355 L18.0409359,24.6896355 L18.0409359,28.1800876 L14.5489425,28.1800876 Z M14.5489425,45.2897052 L14.5489425,41.7992531 L18.0409359,41.7992531 L18.0409359,45.2897052 L14.5489425,45.2897052 Z M11.0663945,41.7992531 L11.0663945,28.1970814 L14.5583879,28.1970814 L14.5583879,41.7992531 L11.0663945,41.7992531 Z M18,24.4919934 L18,21 L31.6021717,21 L31.6021717,24.4919934 L18,24.4919934 Z M31.6249676,45.2897052 L31.6249676,41.7992531 L35.116961,41.7992531 L35.116961,45.2897052 L31.6249676,45.2897052 Z M18.0472987,48.7816986 L18.0472987,45.2897052 L31.6494704,45.2897052 L31.6494704,48.7816986 L18.0472987,48.7816986 Z M19.8166322,42.4938903 L19.8166322,40.0146102 L29.8710471,40.0146102 L29.8710471,42.4938903 L19.8166322,42.4938903 Z" id="Wizz"></path>
                </g>
            </g>
        </g>
    </g>
</svg>