<?xml version="1.0" encoding="iso-8859-1"?>
<!-- Generator: Adobe Illustrator 19.0.0, SVG Export Plug-In . SVG Version: 6.00 Build 0)  -->
<svg version="1.1" id="Capa_1" xmlns="http://www.w3.org/2000/svg" xmlns:xlink="http://www.w3.org/1999/xlink" x="0px" y="0px"
	 viewBox="0 0 511.998 511.998" style="enable-background:new 0 0 511.998 511.998;" xml:space="preserve">
<path style="fill:#FFD983;" d="M194.078,146.625l-84.571-84.569c12.243-14.717,11.634-36.54-2.171-50.345
	c-14.631-14.631-38.349-14.631-52.993,0c-8.987,8.987-12.388,21.403-10.347,33.023c-11.634-2.041-24.037,1.375-33.023,10.362
	c-14.631,14.631-14.631,38.364,0,52.993c13.805,13.805,35.628,14.399,50.345,2.156l84.569,84.569L194.078,146.625z"/>
<path style="fill:#C1694F;" d="M468.118,468.871c24.095-24.095,85.004-127.477,0.666-211.801
	c-58.738-58.724-106.045-55.367-194.147-77.204c-36.134-12.04-83.238-55.454-95.278-67.508
	c-12.055,12.055-7.843,56.061-7.843,56.061s-52.473,4.254-64.513,16.295c12.04,12.055,68,64.976,77.783,89.823
	c26.353,83.571,23.342,126.059,82.067,184.798C363.23,555.699,444.038,492.951,468.118,468.871"/>
<g>
</g>
<g>
</g>
<g>
</g>
<g>
</g>
<g>
</g>
<g>
</g>
<g>
</g>
<g>
</g>
<g>
</g>
<g>
</g>
<g>
</g>
<g>
</g>
<g>
</g>
<g>
</g>
<g>
</g>
</svg>
