<?xml version="1.0" encoding="utf-8"?>
<!-- Generator: Adobe Illustrator 21.1.0, SVG Export Plug-In . SVG Version: 6.00 Build 0)  -->
<svg version="1.1" id="Calque_1" xmlns="http://www.w3.org/2000/svg" xmlns:xlink="http://www.w3.org/1999/xlink" x="0px" y="0px"
	 viewBox="0 0 23 24" style="enable-background:new 0 0 23 24;" xml:space="preserve">
<style type="text/css">
	.st0{display:none;}
	.st1{display:inline;}
</style>
<title>Page 1</title>
<desc>Created with Sketch.</desc>
<g class="st0">
	<rect x="18.7" y="2.6" class="st1" width="1.4" height="1.4"/>
	<path class="st1" d="M18.7,12.7v4.3h-1.4v-2.9h-1.4v-1.4h-4.3v-1.4H10V9.8h1.4V1.1H10v1.4H8.6V4H7.1V2.6H5.7V1.1H4.3v8.7h1.4V20
		H4.3v1.4H2.8v1.5h4.3V20h2.9v1.4H8.6v1.5h8.7V20h1.4v-1.4h1.4v-5.8H18.7z M7.1,6.9H5.7V5.5h1.4V6.9z M8.6,6.9V5.5H10v1.4H8.6z"/>
	<rect x="17.3" y="4" class="st1" width="1.4" height="1.4"/>
	<rect x="17.3" y="11.3" class="st1" width="1.4" height="1.4"/>
	<rect x="15.8" y="5.5" class="st1" width="1.4" height="5.8"/>
</g>
<g>
	<path d="M19.1,19.2l0.8-0.8l0.8,0.8l1.5-1.5l-0.8-0.8l-0.8,0.8l-1.5-1.5l-0.8,0.8l-0.8-0.8l-0.8,0.8l-1.5-1.5l0.8-0.8l-0.8-0.8
		l-0.8,0.8L13,13.1l0.8-0.8L13,11.6l-0.8,0.8l-1.5-1.5l0.8-0.8l-0.8-0.8L10,10.1L8.5,8.6l0.8-0.8L8.5,7.1L7.7,7.8L6.2,6.3l0.8-0.8
		L6.2,4.8l2.3-2.3L6.9,1L6.2,1.7L5.4,1L4.7,1.7L3.9,1L3.1,1.7L2.4,1L0.9,2.5l0.8,0.8L0.9,4l0.8,0.8L0.9,5.5l0.8,0.8L0.9,7.1l1.5,1.5
		l1.5-1.5l0.8,0.8l0.8-0.8l1.5,1.5L6.2,9.3l0.8,0.8l0.8-0.8l1.5,1.5l-0.8,0.8l0.8,0.8l0.8-0.8l1.5,1.5l-0.8,0.8l0.8,0.8l0.8-0.8
		l1.5,1.5L13,16.2l0.8,0.8l0.8-0.8l1.5,1.5l-0.8,0.8l0.8,0.8L15.3,20l1.5,1.5l-0.8,0.8l0.8,0.8l1.5-1.5l-0.8-0.8l0.8-0.8l-0.8-0.8
		l0.8-0.8L19.1,19.2L19.1,19.2z M4.7,4.8L3.1,3.3l0.8-0.8l0.8,0.8l0.8-0.8l0.8,0.8L4.7,4.8L4.7,4.8z"/>
	<rect x="16.3" y="14.1" transform="matrix(0.7071 -0.7071 0.7071 0.7071 -5.4372 16.1863)" width="1.1" height="1.1"/>
	<rect x="13.2" y="17.2" transform="matrix(0.7071 -0.7071 0.7071 0.7071 -8.4761 14.9275)" width="1.1" height="1.1"/>
	<rect x="11" y="16.4" transform="matrix(0.7071 -0.7071 0.7071 0.7071 -8.6042 13.0929)" width="1.1" height="1.1"/>
	<rect x="15.5" y="11.8" transform="matrix(0.7071 -0.7071 0.7071 0.7071 -4.0469 14.9805)" width="1.1" height="1.1"/>
	<rect x="11" y="14.9" transform="matrix(0.7071 -0.7071 0.7071 0.7071 -7.5313 12.6465)" width="1.1" height="1.1"/>
	<rect x="14.8" y="9.6" transform="matrix(0.7071 -0.7071 0.7071 0.7071 -2.6577 13.7772)" width="1.1" height="1.1"/>
	<rect x="14" y="11.8" transform="matrix(0.7071 -0.7071 0.7071 0.7071 -4.4923 13.9053)" width="1.1" height="1.1"/>
	<rect x="8.7" y="15.6" transform="matrix(0.7071 -0.7071 0.7071 0.7071 -8.7356 11.2597)" width="1.1" height="1.1"/>
	<rect x="13.2" y="9.6" transform="matrix(0.7071 -0.7071 0.7071 0.7071 -3.1031 12.7019)" width="1.1" height="1.1"/>
	<rect x="8.7" y="14.1" transform="matrix(0.7071 -0.7071 0.7071 0.7071 -7.6603 10.8143)" width="1.1" height="1.1"/>
	<rect x="11.7" y="9.6" transform="matrix(0.7071 -0.7071 0.7071 0.7071 -3.5485 11.6266)" width="1.1" height="1.1"/>
	<rect x="8.7" y="12.6" transform="matrix(0.7071 -0.7071 0.7071 0.7071 -6.5875 10.3679)" width="1.1" height="1.1"/>
	<rect x="12.5" y="7.3" transform="matrix(0.7071 -0.7071 0.7071 0.7071 -1.7129 11.4962)" width="1.1" height="1.1"/>
	<rect x="6.4" y="13.4" transform="matrix(0.7071 -0.7071 0.7071 0.7071 -7.7908 8.9786)" width="1.1" height="1.1"/>
	<rect x="11" y="7.3" transform="matrix(0.7071 -0.7071 0.7071 0.7071 -2.1583 10.4209)" width="1.1" height="1.1"/>
	<rect x="6.4" y="11.8" transform="matrix(0.7071 -0.7071 0.7071 0.7071 -6.7155 8.5332)" width="1.1" height="1.1"/>
	<rect x="9.4" y="7.3" transform="matrix(0.7071 -0.7071 0.7071 0.7071 -2.6047 9.348)" width="1.1" height="1.1"/>
	<rect x="6.4" y="10.3" transform="matrix(0.7071 -0.7071 0.7071 0.7071 -5.6436 8.0892)" width="1.1" height="1.1"/>
	<rect x="8.7" y="5" transform="matrix(0.7071 -0.7071 0.7071 0.7071 -1.2144 8.1423)" width="1.1" height="1.1"/>
	<rect x="4.1" y="9.6" transform="matrix(0.7071 -0.7071 0.7071 0.7071 -5.7717 6.2546)" width="1.1" height="1.1"/>
	<rect x="7.2" y="5" transform="matrix(0.7071 -0.7071 0.7071 0.7071 -1.6598 7.067)" width="1.1" height="1.1"/>
	<rect x="4.1" y="8" transform="matrix(0.7071 -0.7071 0.7071 0.7071 -4.6988 5.8082)" width="1.1" height="1.1"/>
</g>
</svg>
