<?xml version="1.0" encoding="UTF-8"?>
<svg width="25px" height="26px" viewBox="0 0 25 26" version="1.1" xmlns="http://www.w3.org/2000/svg" xmlns:xlink="http://www.w3.org/1999/xlink">
    <!-- Generator: Sketch 45.2 (43514) - http://www.bohemiancoding.com/sketch -->
    <title>Combined Shape</title>
    <desc>Created with Sketch.</desc>
    <defs></defs>
    <g id="PIXEL-" stroke="none" stroke-width="1" fill="none" fill-rule="evenodd">
        <g id="Chat---pixel" transform="translate(-153.000000, -215.000000)" fill="#000000">
            <g id="USER" transform="translate(133.000000, 100.000000)">
                <g id="2" transform="translate(20.000000, 115.428571)">
                    <path d="M23.5359172,15.2235142 L20.5916905,15.2235142 L20.5916905,16.3058572 L17.6504465,16.3058572 L17.6504465,17.3970498 L16.1775683,17.3970498 L16.1775683,18.4793928 L14.7092025,18.4793928 L14.7092025,19.5705855 L13.2363244,19.5705855 L13.2363244,14.1324347 L14.7092025,14.1324347 L14.7092025,15.2236273 L19.1187358,15.2236273 L19.1187358,14.1324347 L20.591614,14.1324347 L20.591614,13.0500917 L22.0599797,13.0500917 L22.0599797,9.78533515 L20.591614,9.78533515 L20.591614,8.69414251 L22.0599797,8.69414251 L22.0599797,7.61179952 L23.5358407,7.61179952 L23.5358407,3.26472826 L22.0599797,3.26472826 L22.0599797,2.17353563 L17.6504465,2.17353563 L17.6504465,1.09119264 L16.1775683,1.09119264 L16.1775683,0 L8.82082557,0 L8.82082557,1.09119264 L7.35693395,1.09119264 L7.35693395,2.17353563 L2.94128219,2.17353563 L2.94128219,3.26472826 L1.47291642,3.26472826 L1.47291642,7.61179952 L2.94128219,7.61179952 L2.94128219,8.69414251 L4.41714315,8.69414251 L4.41714315,9.78533515 L2.94128219,9.78533515 L2.94128219,13.0500917 L4.41714315,13.0500917 L4.41714315,14.1324347 L5.88103476,14.1324347 L5.88103476,15.2236273 L10.2966865,15.2236273 L10.2966865,14.1324347 L11.7605781,14.1324347 L11.7605781,19.5705855 L10.2966865,19.5705855 L10.2966865,18.4793928 L8.82082557,18.4793928 L8.82082557,17.3970498 L7.35693395,17.3970498 L7.35693395,16.3058572 L4.41718139,16.3058572 L4.41718139,15.2235142 L0,15.2235142 L0,19.5705855 L2.94124395,19.5705855 L2.94124395,20.6529285 L4.4171049,20.6529285 L4.4171049,22.8264641 L7.35685747,22.8264641 L7.35685747,23.917657 L11.7606546,23.917657 L11.7606546,25 L13.2365156,25 L13.2365156,23.917657 L17.6506377,23.917657 L17.6506377,22.8264641 L20.5918817,22.8264641 L20.5918817,20.6529285 L22.0602474,20.6529285 L22.0602474,19.5705855 L25,19.5705855 L25,15.2235142 L23.5359172,15.2235142 Z M10.29661,13.0488759 L8.82074909,13.0488759 L8.82074909,14.1312189 L7.35685747,14.1312189 L7.35685747,13.0488759 L5.88099652,13.0488759 L5.88099652,11.9576833 L4.4171049,11.9576833 L4.4171049,10.8664906 L5.88099652,10.8664906 L5.88099652,9.78414765 L7.35685747,9.78414765 L7.35685747,8.69295502 L5.88099652,8.69295502 L5.88099652,7.61061203 L4.4171049,7.61061203 L4.4171049,6.51941939 L2.94124395,6.51941939 L2.94124395,4.34588376 L4.4171049,4.34588376 L4.4171049,3.26354077 L7.35685747,3.26354077 L7.35685747,4.34588376 L8.82074909,4.34588376 L8.82074909,2.17234813 L10.29661,2.17234813 L10.29661,1.09000514 L14.7092025,1.09000514 L14.7092025,2.17234813 L16.1775683,2.17234813 L16.1775683,4.34588376 L17.6504465,4.34588376 L17.6504465,3.26354077 L20.5916905,3.26354077 L20.5916905,4.34588376 L22.0600562,4.34588376 L22.0600562,6.51941939 L20.5916905,6.51941939 L20.5916905,7.61061203 L19.1188123,7.61061203 L19.1188123,8.69295502 L17.6504465,8.69295502 L17.6504465,9.78414765 L19.1188123,9.78414765 L19.1188123,10.8664906 L20.5916905,10.8664906 L20.5916905,11.9576833 L19.1188123,11.9576833 L19.1188123,13.0488759 L17.6504465,13.0488759 L17.6504465,14.1312189 L16.1775683,14.1312189 L16.1775683,13.0488759 L10.29661,13.0488759 Z M10.29661,22.828726 L8.82074909,22.828726 L8.82074909,21.746383 L5.88099652,21.746383 L5.88099652,19.5728474 L4.4171049,19.5728474 L4.4171049,18.4816547 L1.47287818,18.4816547 L1.47287818,16.3081191 L2.94124395,16.3081191 L2.94124395,17.3993117 L5.88099652,17.3993117 L5.88099652,18.4816547 L7.35685747,18.4816547 L7.35685747,19.5728474 L8.82074909,19.5728474 L8.82074909,20.6551904 L10.29661,20.6551904 L10.29661,21.746383 L11.7605017,21.746383 L11.7605017,22.828726 L10.29661,22.828726 Z M23.5359172,17.3970781 L23.5359172,18.4794211 L20.5916905,18.4794211 L20.5916905,19.5706137 L19.1188123,19.5706137 L19.1188123,21.7441494 L16.1775683,21.7441494 L16.1775683,22.8264924 L13.2363244,22.8264924 L13.2363244,21.7441494 L14.7092025,21.7441494 L14.7092025,20.6529567 L16.1775683,20.6529567 L16.1775683,19.5706137 L17.6504465,19.5706137 L17.6504465,18.4794211 L19.1188123,18.4794211 L19.1188123,17.3970781 L22.0600562,17.3970781 L22.0600562,16.3058855 L23.5359172,16.3058855 L23.5359172,17.3970781 Z M14.7092025,10.8665472 L10.29661,10.8665472 L10.29661,9.7842042 L8.82074909,9.7842042 L8.82074909,6.51944766 L10.29661,6.51944766 L10.29661,5.43710467 L14.7092025,5.43710467 L14.7092025,6.51944766 L16.1775683,6.51944766 L16.1775683,9.7842042 L14.7092025,9.7842042 L14.7092025,10.8665472 Z" id="Combined-Shape"></path>
                </g>
            </g>
        </g>
    </g>
</svg>