<?xml version="1.0" encoding="utf-8"?>
<!-- Generator: Adobe Illustrator 21.1.0, SVG Export Plug-In . SVG Version: 6.00 Build 0)  -->
<svg version="1.1" id="Calque_1" xmlns="http://www.w3.org/2000/svg" xmlns:xlink="http://www.w3.org/1999/xlink" x="0px" y="0px"
	 viewBox="0 0 23 24" style="enable-background:new 0 0 23 24;" xml:space="preserve">
<style type="text/css">
	.st0{display:none;}
	.st1{display:inline;}
</style>
<title>Page 1</title>
<desc>Created with Sketch.</desc>
<g class="st0">
	<rect x="18.7" y="2.6" class="st1" width="1.4" height="1.4"/>
	<path class="st1" d="M18.7,12.7v4.3h-1.4v-2.9h-1.4v-1.4h-4.3v-1.4H10V9.8h1.4V1.1H10v1.4H8.6V4H7.1V2.6H5.7V1.1H4.3v8.7h1.4V20
		H4.3v1.4H2.8v1.5h4.3V20h2.9v1.4H8.6v1.5h8.7V20h1.4v-1.4h1.4v-5.8H18.7z M7.1,6.9H5.7V5.5h1.4V6.9z M8.6,6.9V5.5H10v1.4H8.6z"/>
	<rect x="17.3" y="4" class="st1" width="1.4" height="1.4"/>
	<rect x="17.3" y="11.3" class="st1" width="1.4" height="1.4"/>
	<rect x="15.8" y="5.5" class="st1" width="1.4" height="5.8"/>
</g>
<path d="M22.1,15.8v4.5h-1.5v1.5h-9.1v-1.5H10V8.2H7V6.7h-3V5.2H2.4V3.7H0.9V2.2h10.6v13.6h3v-1.5h6.1v1.5
	C20.6,15.8,22.1,15.8,22.1,15.8z"/>
</svg>
