<svg xmlns="http://www.w3.org/2000/svg" viewBox="0 0 32 24"><defs><style>.cls-1{fill:#ff4f4f;fill-rule:evenodd;}</style></defs><title>picto 4</title><g id="Calque_2" data-name="Calque 2"><g id="Objets"><path class="cls-1" d="M.27,0H32V24H0V.26C0,0,.11,0,.27,0M12.91,11.29c.91.91,2.09,2.61,3.22,2.57s2.44-1.91,3.23-2.69c2.57-2.56,5.2-4.83,7.48-7.32.45-.49,1.16-1.25,1-1.54C20,2.4,11.7,2.14,4,2.44c2.65,2.62,6,5.93,8.9,8.85M8.26,14c.45-.44,2.09-1.67,2.07-2.05S8.63,10.26,8.39,10c-2-2.17-4-4.08-5.93-5.9,0-.14-.17-.1-.13.12V19.89c1.87-1.42,4-4,5.93-5.9m13.55-1.8c2.32,2.06,4.76,4.84,7,6.93.24.23.5.92.91.64-.09-5.17.17-10.69-.13-15.65-2.55,2.72-5.34,5.2-7.74,8.08M11.88,13.6c-2.24,2.22-4.84,5-7,7.19-.21.22-.89.45-.64.9h23.6C25.8,19,22.61,16.31,20.13,13.6c-1.76,3.36-6.51,3-8.25,0"/></g></g></svg>