<svg xmlns="http://www.w3.org/2000/svg" viewBox="0 0 127 94">
  <path d="M109.8 25.6c-.6-2.7-2.9-12.1-6.5-15.7l-.3-.3C99.1 5.7 94.7 1.3 83.8.3 83 .2 82.2.2 81.4.2c-10 0-15.6 5.9-19.7 11.7-2.1 2.9-3.5 7-5 11.4-1.5 4.3-3 8.8-5.3 11.8-4.7 6.4-13.2 7.6-17.9 7.8h-.9c-5.7 0-12.7-1.9-18.6-5.1C9 35 3.7 28.6 3.6 28.5l-2.3-2.7-.4 3.5C.9 29.8-.3 40.4.3 48c.9 11.4 6.8 23.5 15.2 31.6 10.1 9.6 23.9 14.3 42.4 14.3 27.9 0 40.4-20.1 45.1-27.7 5.1-8.2 6.2-18 6.4-20.9l17.5-11.1-17.1-8.6zm-3.3 17.9v.8c0 .1-.5 11.3-6 20.2-4.5 7.3-16.4 26.3-42.6 26.3-17.7 0-30.8-4.4-40.2-13.4C9.9 69.9 4.3 58.3 3.5 47.8c-.4-4.8 0-11 .3-14.8 2.2 2.3 5.6 5.5 8.9 7.4 6.3 3.4 13.8 5.5 20 5.5h1c5.2-.2 14.8-1.6 20.2-9 2.5-3.4 4.1-8.1 5.7-12.6 1.4-4.1 2.8-8 4.6-10.6 3.9-5.4 8.6-10.4 17.2-10.4.7 0 1.4 0 2.2.1 9.8.9 13.6 4.7 17.3 8.4l.3.3c2.9 2.9 5.2 11.7 5.8 14.9l.1.7 13.7 6.8-14.3 9z"/>
  <path d="M89.8 15.1c-4.9 0-8.9 4-8.9 8.9s4 8.9 8.9 8.9 8.9-4 8.9-8.9-4-8.9-8.9-8.9zm0 14.7c-3.2 0-5.9-2.6-5.9-5.9s2.6-5.9 5.9-5.9 5.9 2.6 5.9 5.9-2.6 5.9-5.9 5.9z"/>
</svg>
