<svg xmlns="http://www.w3.org/2000/svg" viewBox="0 0 62.5 51.7">
  <path d="M22.5 51.7c-11.7 0-21.2-5.6-21.4-5.7-.9-.6-1.3-1.7-1-2.7.4-1 1.4-1.6 2.4-1.5 6.3.8 10.7-1.1 13.1-2.7-5.9-4.4-19-17-10.9-35.5.3-.8 1.1-1.3 1.9-1.4.8-.1 1.6.3 2.1 1 .2.4 5.9 8.9 20 10.6C28.7 6.2 35 0 42.6 0c3.4 0 6.7 1.2 9.2 3.5 3.8-.4 6.7-.5 6.8-.5.3 0 .6 0 .9.1.5-.1 1-.1 1.6.1 1.2.4 1.7 1.7 1.3 2.9-.4 1.1-2.5 6.4-5.3 9 .7 6.5-.9 16-11.3 26.7-7.4 7.6-15.8 9.9-23.3 9.9zm-10.6-6c8.1 2.4 20.4 3.5 30.6-7 9.8-10.1 10.8-18.8 9.9-24.2-.1-.9.3-1.8 1.1-2.3 1-.6 2.3-2.6 3.3-4.6-1.4.1-3.3.2-5.4.5-.7.1-1.4-.2-1.9-.7-1.8-1.9-4.2-2.9-6.8-2.9-5.2 0-9.5 4.3-9.5 9.5 0 .7.1 1.3.2 1.9.2.7 0 1.4-.5 2-.5.5-1.2.8-1.8.8-12.4-.8-19.8-6.2-23.4-9.7-5.1 17.4 12 27.5 12.8 28 .6.3 1 .9 1.1 1.6.1.7-.1 1.3-.5 1.9-.2.2-3.4 3.6-9.2 5.2z"/>
</svg>
