<?xml version="1.0" encoding="utf-8"?>
<!-- Generator: Adobe Illustrator 21.1.0, SVG Export Plug-In . SVG Version: 6.00 Build 0)  -->
<svg version="1.1" xmlns="http://www.w3.org/2000/svg" xmlns:xlink="http://www.w3.org/1999/xlink" x="0px" y="0px"
	 viewBox="0 0 120.5 70" style="enable-background:new 0 0 120.5 70;" xml:space="preserve">
<style type="text/css">
	.st0{opacity:0.15;}
	.st1{clip-path:url(#SVGID_2_);}
	.st2{opacity:0;fill:#FFFA00;}
	.st3{fill:#FF84B7;}
	.st4{fill:#A3FCE6;}
	.st5{fill:#F3DAB1;}
	.st6{fill:#F3D9B1;}
	.st7{fill:#877657;}
	.st8{fill:#FDF7F9;}
	.st9{fill:#F895BB;}
	.st10{fill:#FBE0E9;}
	.st11{fill:#FFFFFF;}
	.st12{fill:#FDEEF3;}
	.st13{fill:none;stroke:#F895BB;stroke-width:10;stroke-linecap:round;stroke-miterlimit:10;}
	.st14{fill:#A30044;}
	.st15{fill:#E15286;}
	.st16{fill:#FACDDE;}
	.st17{fill:#F9B5CE;}
	.st18{fill:#CE215E;}
	.st19{fill:url(#Rectangle_vertical_gauche_1_);}
	.st20{fill:#7BFFD1;}
	.st21{fill:#FF7BAB;}
	.st22{fill:url(#fond_1_);}
	.st23{fill:#BF0050;}
	.st24{fill:#FF9FC3;}
	.st25{fill:url(#SVGID_3_);}
	.st26{fill:#606060;}
	.st27{display:none;}
</style>
<g id="PAGE_TCHAT">
	<g id="Motif_de_fond" class="st0">
		<defs>
			<rect id="SVGID_1_" x="-1874.4" y="-938.3" class="st0" width="1521.7" height="1080"/>
		</defs>
		<clipPath id="SVGID_2_">
			<use xlink:href="#SVGID_1_"  style="overflow:visible;"/>
		</clipPath>
		<g class="st1">
			<g>
				<g>
					
						<rect x="-231.1" y="-155.4" transform="matrix(-0.8864 0.463 -0.463 -0.8864 -215.0789 -9.6913)" class="st2" width="249.4" height="248.3"/>
					<g>
						<g>
							<path class="st6" d="M10.5,4.7c-0.4,1.5-2,2.3-3.5,1.9l-23.7-7.1c-1.5-0.4-2.3-2-1.9-3.5c0.4-1.5,2-2.3,3.5-1.9L8.6,1.2
								C10.1,1.7,11,3.2,10.5,4.7z"/>
						</g>
					</g>
				</g>
			</g>
		</g>
	</g>
</g>
<g id="Calque_7">
	<g id="Bouton_envoyer_1_">
		<g>
			<rect x="0" y="0.1" class="st16" width="120.5" height="69.9"/>
			<polygon class="st17" points="60,19.9 0,0 0,59.5 			"/>
			<polygon class="st17" points="60,19.9 120.5,59.5 120.5,0 			"/>
			<polygon class="st9" points="60.2,45.6 120.3,0.3 0,0.3 			"/>
		</g>
		<path class="st18" d="M72.7,40.8L60.2,53.2l0,0l0,0L47.8,40.8c-3.3-3.3-3.3-8.7,0-12c3.3-3.3,8.7-3.3,12,0
			c0.2,0.2,0.3,0.3,0.5,0.5c0.2-0.2,0.3-0.4,0.5-0.5c3.3-3.3,8.7-3.3,12,0C76,32.1,76,37.5,72.7,40.8z"/>
	</g>
</g>
<g id="PAGE_LOGIN">
</g>
<g id="Bordel">
</g>
<g id="cache_gris">
</g>
<g id="repere" class="st27">
</g>
<g id="repere_2">
</g>
</svg>
