<?xml version="1.0" encoding="utf-8"?>
<!-- Generator: Adobe Illustrator 21.1.0, SVG Export Plug-In . SVG Version: 6.00 Build 0)  -->
<svg version="1.1" id="Calque_1" xmlns="http://www.w3.org/2000/svg" xmlns:xlink="http://www.w3.org/1999/xlink" x="0px" y="0px"
	 viewBox="0 0 23 24" style="enable-background:new 0 0 23 24;" xml:space="preserve">
<g>
	<path d="M22.2,8.5L22.2,8.5l0-1.6h-0.8V5.3h-0.8V4.5h-0.8V3.7H19V2.9h-0.8V2.1h-0.8V1.3h-2.4V0.5H8v0.8H5.6v0.8H4.8v0.8H4v0.8H3.2
		v0.8H2.4v0.8H1.6v1.6H0.8v1.6H0v7.9h0.8v1.6h0.8v0.8h0.8v1.6h0.8v0.8H4h0h0.8h0l0,0v0.8h0.8v0.8H8v0.8H15v-0.8h2.4v-0.8h0.8v-0.8
		h1.6v-0.8h0.8v-1.6h0.8v-0.8h0.8v-1.6H23V8.5H22.2z M22.2,11.1v1.2v3.3h-0.8v1.6h-0.8v0.8v0h0h-0.7h-0.1v0.3v0.4v0v0.8v0h0h-0.5H19
		v0.1v0.7h-1.6v0.8h-0.8v0.8h-2.4v0.8H8.7v0v-0.3v-0.5H6.3v0v-0.2v-0.5H6H5.6h0v0v-0.4v-0.4H5.2H4.8h0H4h0v0V20v-0.4H3.2V18H2.4
		v-0.8H1.6v-1.6H0.8V9.2l0,0h0.8V7.6l0,0h0h0.8V6l0,0h0.8V5.3l0,0H4V4.5v0l0,0h0l0,0h0.8V3.7v0h0.8V2.9l0,0h0.8V2.1h2.4V1.3v0h5.6
		l0,0.8h2.4l0,0.8h0.8v0.8h0.8v0.8H19v0.8h0.8V6h0.8v1.6h0.8v1.6h0.8L22.2,11.1L22.2,11.1z"/>
	<g>
		<path d="M15.6,14H15H7.1v0.4v0.4v0.8v0.8v0.8h0.8v-0.8H15v0.8h0.8v-2.4v-0.4V14H15.6z M15,15.6H7.9v-0.8H15V15.6z"/>
		<polygon points="14.3,17.1 7.9,17.1 7.9,17.9 14.3,17.9 15,17.9 15.1,17.9 15.1,17.1 15,17.1 		"/>
	</g>
	<rect x="6.4" y="10.8" width="3.1" height="0.8"/>
	<rect x="13.5" y="10.8" width="3.1" height="0.8"/>
	<g>
		<rect x="8.7" y="6.9" width="0.8" height="0.8"/>
		<rect x="6.4" y="6.9" width="0.8" height="0.8"/>
		<polygon points="7.2,6.1 7.2,6.8 8.7,6.8 8.7,6.1 		"/>
	</g>
	<g>
		<rect x="15.9" y="6.9" width="0.8" height="0.8"/>
		<rect x="13.5" y="6.9" width="0.8" height="0.8"/>
		<polygon points="14.3,6.1 14.3,6.8 15.8,6.8 15.8,6.1 		"/>
	</g>
</g>
</svg>
