<?xml version="1.0" encoding="iso-8859-1"?>
<!-- Generator: Adobe Illustrator 19.0.0, SVG Export Plug-In . SVG Version: 6.00 Build 0)  -->
<svg version="1.1" id="Capa_1" xmlns="http://www.w3.org/2000/svg" xmlns:xlink="http://www.w3.org/1999/xlink" x="0px" y="0px"
	 viewBox="0 0 512 512" style="enable-background:new 0 0 512 512;" xml:space="preserve">
<g transform="matrix(1.25 0 0 -1.25 0 45)">
	<path style="fill:#DD2E44;" d="M350.46-262.618c-13.762,9.158-11.682,46.728-35.046,70.092
		c-23.364,23.376-58.41,23.376-81.774,46.74s-23.364,58.41-46.728,81.762c-23.364,23.376-60.934,21.308-70.092,35.046
		c-46.728,70.104-58.41,58.41-58.41,58.41S33.375-5.614,35.046-28.978C36.717-52.331,0-87.377,0-87.377
		c1.379-12.36,11.682-35.046,35.046-46.728c11.495-5.759,28.55-5.186,46.728-23.364c18.189-18.201,32.534-71.295,50.723-89.472
		c18.178-18.189,59.59-20.852,77.779-39.041c18.189-18.178,13.469-38.515,23.364-46.728c21.927-18.224,35.046-35.046,46.728-35.046
		c0,0,35.046,11.682,46.74,11.682c33.048,0,81.762,35.046,81.762,35.046S420.552-309.346,350.46-262.618z"/>
	<g>
		<path style="fill:#DD2E44;" d="M361.596-270.231c-3.464,2.427-7.161,4.957-11.135,7.604c-1.506,1.003-2.821,2.346-4.001,3.974
			c-9.612,13.243-10.237,45.312-31.047,66.123c-9.366,9.371-20.611,14.983-32.227,19.853c-17.359,7.274-35.548,12.887-49.544,26.884
			c-0.73,0.73-1.438,1.472-2.123,2.225c-20.596,22.586-21.909,54.813-42.536,77.384c-0.669,0.732-1.357,1.454-2.068,2.165
			c-3.353,3.353-6.999,6.181-10.81,8.609c-22.295,14.198-50.286,14.652-58.784,25.745c-0.015,0.021-0.033,0.04-0.048,0.06
			c-0.101,0.134-0.196,0.272-0.292,0.411c-0.052,0.075-0.107,0.147-0.158,0.222c-0.001,0.001-0.002,0.002-0.002,0.003l0,0
			c-0.656,0.985-1.304,1.948-1.947,2.902c-0.194,0.289-0.387,0.572-0.581,0.858c-0.467,0.69-0.93,1.371-1.39,2.043
			c-0.192,0.282-0.386,0.565-0.577,0.844c-0.596,0.868-1.187,1.727-1.77,2.567c-0.057,0.082-0.113,0.163-0.17,0.245
			c-0.574,0.825-1.14,1.634-1.701,2.432c-0.198,0.281-0.393,0.558-0.59,0.836c-0.41,0.581-0.817,1.154-1.221,1.72
			c-0.2,0.281-0.401,0.563-0.6,0.841c-0.503,0.702-1.002,1.393-1.495,2.074c-0.138,0.191-0.276,0.38-0.412,0.568
			c-0.476,0.655-0.947,1.299-1.415,1.933c-0.212,0.289-0.423,0.571-0.633,0.856c-0.344,0.465-0.685,0.923-1.024,1.377
			c-0.214,0.287-0.429,0.575-0.641,0.856c-0.401,0.534-0.799,1.058-1.193,1.577c-0.239,0.314-0.477,0.625-0.713,0.935
			c-0.368,0.481-0.734,0.958-1.097,1.425c-0.231,0.299-0.46,0.592-0.688,0.885c-0.272,0.35-0.543,0.695-0.812,1.036
			c-0.235,0.299-0.47,0.598-0.703,0.891c-0.285,0.36-0.567,0.711-0.848,1.063c-0.363,0.454-0.724,0.901-1.081,1.342
			c-0.253,0.313-0.507,0.625-0.757,0.93c-0.248,0.303-0.494,0.6-0.739,0.897c-0.207,0.25-0.412,0.497-0.617,0.743
			c-0.251,0.301-0.501,0.6-0.747,0.894c-0.187,0.222-0.371,0.438-0.557,0.657c-0.466,0.549-0.925,1.086-1.379,1.61
			c-0.152,0.175-0.305,0.354-0.455,0.527c-0.262,0.301-0.521,0.594-0.778,0.887c-0.147,0.167-0.294,0.332-0.44,0.496
			c-0.263,0.295-0.524,0.589-0.782,0.876c-0.1,0.112-0.199,0.219-0.299,0.33c-0.553,0.612-1.097,1.204-1.63,1.777
			c-0.061,0.065-0.122,0.132-0.182,0.197c-0.271,0.29-0.539,0.574-0.806,0.855c-0.096,0.1-0.192,0.201-0.286,0.301
			c-0.271,0.283-0.539,0.564-0.805,0.837c-0.022,0.022-0.043,0.045-0.065,0.067c-0.898,0.924-1.765,1.789-2.603,2.6
			c-0.052,0.05-0.103,0.1-0.155,0.149c-1.132,1.092-2.209,2.084-3.232,2.983c-0.02,0.017-0.039,0.034-0.058,0.052
			c-5.246,4.6-9.093,6.78-11.836,7.725c-0.017,0.006-0.034,0.012-0.051,0.017c-0.39,0.133-0.757,0.241-1.103,0.326
			c-0.014,0.003-0.028,0.008-0.043,0.011c-0.096,0.023-0.19,0.045-0.283,0.064c-0.045,0.009-0.088,0.019-0.132,0.028
			c-0.083,0.017-0.167,0.034-0.247,0.048c-0.056,0.01-0.109,0.019-0.163,0.027c-0.105,0.017-0.208,0.033-0.308,0.046
			c-0.076,0.01-0.153,0.02-0.227,0.027c-0.047,0.005-0.093,0.009-0.139,0.013c-0.08,0.007-0.158,0.013-0.235,0.017
			c-0.033,0.002-0.065,0.004-0.097,0.005c-0.123,0.005-0.242,0.008-0.356,0.007c-0.194-0.001-0.374-0.011-0.543-0.027
			c-0.049-0.004-0.095-0.01-0.142-0.015c-0.122-0.015-0.236-0.033-0.345-0.053c-0.09-0.017-0.177-0.036-0.259-0.056
			c-0.046-0.011-0.089-0.022-0.132-0.034c-0.768-0.218-1.099-0.547-1.099-0.547l-5.077-11.845
			c7.688-3.035,23.16-15.267,51.804-58.242c9.158-13.738,46.728-11.67,70.092-35.046c23.364-23.352,23.364-58.398,46.728-81.762
			c23.364-23.376,58.41-23.376,81.774-46.74c23.364-23.364,21.284-60.934,35.046-70.092c42.98-28.654,55.209-44.127,58.242-51.812
			l11.827,5.07c0.012,0.009,0.025,0.018,0.025,0.018s0.343,0.344,0.559,1.148C410.398-316.244,408.739-303.265,361.596-270.231z"/>
		<path style="fill:#F4ABBA;" d="M338.778-274.3c-13.762,9.158-11.682,46.728-35.046,70.092
			c-23.364,23.364-58.41,23.364-81.774,46.74c-23.364,23.364-23.364,58.41-46.728,81.762
			c-23.364,23.376-60.934,21.308-70.092,35.046C76.493,2.314,61.02,14.548,53.333,17.582c-0.777,0.307-1.473,0.52-2.097,0.661
			c-2.282-3.855-4.835-8.468-7.233-13.449c8.329-4.474,23.471-18.16,49.452-57.137c9.158-13.738,46.728-11.67,70.092-35.034
			s23.364-58.41,46.728-81.774c23.364-23.376,58.41-23.376,81.774-46.74s21.284-60.934,35.046-70.092
			c40.224-26.815,53.513-42.087,57.538-50.235c4.943,2.771,9.395,5.462,13.092,7.791c-0.139,0.677-0.364,1.446-0.707,2.314
			C393.987-318.427,381.758-302.953,338.778-274.3z"/>
		<path style="fill:#FFE8B6;" d="M327.096-285.982c-13.762,9.158-11.682,46.728-35.046,70.092s-58.41,23.364-81.774,46.74
			c-23.364,23.364-23.364,58.41-46.728,81.774S102.614-66.08,93.456-52.342C67.476-13.366,52.334,0.321,44.004,4.795
			c-2.348-4.88-4.542-10.111-6.181-15.331c8.962-6.928,22.898-21.904,43.951-53.488c23.364-35.034,46.728-23.352,70.092-46.716
			s23.364-46.728,46.728-70.104c23.364-23.364,46.728-23.364,70.092-46.728s11.682-46.728,46.728-70.092
			c34.056-22.703,48.805-37.132,54.971-45.969c5.019,2.401,9.831,4.94,14.249,7.417
			C380.609-328.069,367.319-312.798,327.096-285.982z"/>
		<path style="fill:#EA596E;" d="M315.414-297.664c-35.046,23.364-23.364,46.728-46.728,70.092
			c-23.364,23.364-46.728,23.364-70.092,46.728c-23.364,23.376-23.364,46.74-46.728,70.104s-46.728,11.682-70.092,46.716
			c-21.052,31.583-34.988,46.56-43.951,53.488c-2.007-6.39-3.182-12.76-2.775-18.439c0.295-4.114-0.606-8.591-2.284-13.176
			C39.83-49.75,48.298-60.536,58.41-75.706c9.158-13.738,46.728-11.67,70.092-35.034s23.364-70.092,46.728-93.468
			c23.364-23.364,58.41-23.364,81.774-46.728c23.364-23.364,32.966-60.934,46.728-70.092c20.495-13.663,32.99-24.326,40.425-32.581
			c8.738,2.286,17.776,5.931,26.228,9.974C364.219-334.797,349.469-320.368,315.414-297.664z"/>
		<path style="fill:#FFE8B6;" d="M303.732-321.028c-13.762,9.158-23.364,46.728-46.728,70.092
			c-23.364,23.364-58.41,23.364-81.774,46.728c-23.364,23.376-23.364,70.104-46.728,93.468S67.568-89.444,58.41-75.706
			C48.298-60.536,39.83-49.75,32.765-42.15c-2.64-7.212-7.208-14.689-12.113-21.438c7.152-8.508,15.76-19.993,26.077-35.47
			c9.158-13.75,46.728-11.682,70.092-35.046s23.364-58.41,46.728-81.786c23.364-23.364,58.41-23.364,81.774-46.728
			s21.284-60.934,35.046-70.092c14.861-9.907,26.034-18.234,34.434-25.213c4.959,1.104,9.371,1.841,12.307,1.841
			c5.361,0,11.136,0.927,17.047,2.474C336.722-345.354,324.227-334.691,303.732-321.028z"/>
		<path style="fill:#EA596E;" d="M245.322-262.618c-23.364,23.364-58.41,23.364-81.774,46.728
			c-23.364,23.376-23.364,58.422-46.728,81.786s-60.934,21.296-70.092,35.046C36.41-83.58,27.803-72.096,20.65-63.588
			c-3.534-4.862-7.239-9.343-10.522-13.075c6.918-8.358,15.15-19.426,24.917-34.077c9.158-13.75,46.728-11.682,70.092-35.046
			s23.364-58.41,46.728-81.786c23.364-23.364,58.41-23.364,81.774-46.728s21.284-60.934,35.046-70.092
			c10.54-7.027,19.22-13.257,26.381-18.778c6.19,1.834,13.409,3.839,19.737,5.247c-8.4,6.979-19.573,15.306-34.434,25.213
			C266.606-323.551,268.686-285.982,245.322-262.618z"/>
		<path style="fill:#DD2E44;" d="M233.64-274.3c-23.364,23.364-58.41,23.364-81.774,46.728
			c-23.364,23.376-23.364,58.422-46.728,81.786s-60.934,21.296-70.092,35.046c-9.767,14.651-17.999,25.718-24.917,34.077
			C4.425-83.15,0.003-87.372,0.003-87.372c1.379-12.371,11.682-35.058,35.046-46.74c11.495-5.747,28.55-5.186,46.728-23.364
			c18.178-18.189,32.534-71.283,50.723-89.472c18.165-18.178,59.59-20.84,77.779-39.03c18.178-18.178,13.469-38.515,23.364-46.728
			c21.927-18.224,35.034-35.058,46.716-35.058c0,0,6.435,2.144,14.708,4.595c-7.16,5.521-15.839,11.751-26.381,18.778
			C254.924-335.233,257.004-297.664,233.64-274.3z"/>
	</g>
</g>
<g>
</g>
<g>
</g>
<g>
</g>
<g>
</g>
<g>
</g>
<g>
</g>
<g>
</g>
<g>
</g>
<g>
</g>
<g>
</g>
<g>
</g>
<g>
</g>
<g>
</g>
<g>
</g>
<g>
</g>
</svg>
