<?xml version="1.0" encoding="utf-8"?>
<!-- Generator: Adobe Illustrator 21.1.0, SVG Export Plug-In . SVG Version: 6.00 Build 0)  -->
<svg version="1.1" id="Capa_1" xmlns="http://www.w3.org/2000/svg" xmlns:xlink="http://www.w3.org/1999/xlink" x="0px" y="0px"
	 viewBox="0 0 512 512" style="enable-background:new 0 0 512 512;" xml:space="preserve">
<style type="text/css">
	.st0{fill:#F4900C;}
	.st1{fill:#FFCC4D;}
	.st2{fill:#BE1931;}
</style>
<g transform="matrix(1.25 0 0 -1.25 0 45)">
	<g>
		<path class="st0" d="M364.1-168.5c0.1-82.6-45.3-148-22.5-167.3c3.7-2.2,7.5-3.4,11.4-3.4c22.8,0,56.8,76.5,56.6,170.8
			S375.2,2.2,352.4,2.1c-3.9,0-7.7-1.2-11.4-3.4C318.3-20.7,363.9-86,364.1-168.5"/>
		<path class="st1" d="M375.5-168.5c-0.1,68.8-19.4,118.2-29.3,138c-4.4,8.9-14,6.5-14,6.5L22.7-146.4c0,0-22.7-10.2-22.7-22.8
			c0-12.6,22.8-22.7,22.8-22.7s303.6-119.7,308.6-121.1c5-1.4,11.9-0.7,14.5,4.7C355.1-289.3,375.6-239.2,375.5-168.5"/>
	</g>
	<g>
		<path class="st2" d="M56.9-169c-15.9,0-29.9-8.2-38-20.6c2.3-1.4,3.9-2.2,3.9-2.2s33.7-13.3,78.9-31.1c0.5,2.7,0.8,5.6,0.8,8.5
			C102.4-189.4,82-169,56.9-169z"/>
		<path class="st2" d="M138.1-237.3c22.3-8.8,45.8-18,68.4-26.9c12.7,8.1,21.2,22.3,21.2,38.5c0,25.1-20.5,45.5-45.6,45.4
			c-25.1,0-45.5-20.5-45.4-45.6C136.6-229.8,137.2-233.6,138.1-237.3z"/>
		<path class="st2" d="M364.1-191.3c0,25.1-20.5,45.5-45.6,45.4s-45.5-20.5-45.4-45.6c0-25.1,20.5-45.5,45.6-45.4
			S364.2-216.4,364.1-191.3z"/>
		<path class="st2" d="M276.5-46.1l-55.2-21.8c-3.3-6.3-5.2-13.6-5.2-21.3c0-25.1,20.5-45.5,45.6-45.4s45.5,20.5,45.4,45.6
			C307-69.1,294.3-52.2,276.5-46.1z"/>
		<path class="st2" d="M165-90.1l-84-33.2c5-19.7,22.9-34.3,44.2-34.2c25.1,0,45.5,20.5,45.4,45.6C170.6-104.1,168.5-96.6,165-90.1z
			"/>
		<path class="st2" d="M318.7-308.1c0.1,1,0.1,2,0.1,3c0,25.1-20.5,45.5-45.6,45.4c-14.2,0-26.9-6.6-35.2-16.8
			C272.7-290.2,302.6-301.9,318.7-308.1z"/>
	</g>
</g>
</svg>
